<!-- generated by vm-brand scripts/make-readme-kit.py. Do not edit by hand. -->
<svg xmlns="http://www.w3.org/2000/svg" viewBox="0 0 1280 255" width="1280" height="255" role="img" aria-label="BROWSER -&gt; NEXT.JS 14 -&gt; SUPABASE -&gt; VERCEL. Atomic Design: presentational components get props. Containers own state and side effects."><title>BROWSER -&gt; NEXT.JS 14 -&gt; SUPABASE -&gt; VERCEL. Atomic Design: presentational components get props. Containers own state and side effects.</title>
<defs>
<radialGradient id="vmp-flow-l-g"><stop offset="0" stop-color="#6366f1" stop-opacity="0.1"/><stop offset="1" stop-color="#6366f1" stop-opacity="0"/></radialGradient>
<pattern id="vmp-flow-l-grid" width="32" height="32" patternUnits="userSpaceOnUse"><path d="M32 0H0V32" fill="none" stroke="#18181b" stroke-opacity="0.05" stroke-width="1"/></pattern>
<radialGradient id="vmp-flow-l-fade" cx="0.5" cy="0.2" r="0.8"><stop offset="0" stop-color="#fff"/><stop offset="1" stop-color="#fff" stop-opacity="0"/></radialGradient>
<mask id="vmp-flow-l-m"><rect width="1280" height="255" fill="url(#vmp-flow-l-fade)"/></mask>
<clipPath id="vmp-flow-l-clip"><rect width="1280" height="255" rx="28"/></clipPath>
</defs>
<g clip-path="url(#vmp-flow-l-clip)">
<rect width="1280" height="255" fill="#fafafa"/>
<rect width="1280" height="255" fill="url(#vmp-flow-l-grid)" mask="url(#vmp-flow-l-m)"/>
<ellipse cx="1024" cy="0" rx="461" ry="220" fill="url(#vmp-flow-l-g)"/>
</g>
<rect x="0.5" y="0.5" width="1279" height="254" rx="27.5" fill="none" stroke="#e4e4e7"/>
<rect x="40.0" y="40" width="264.0" height="139" rx="16" fill="#ffffff" fill-opacity="0.92" stroke="#e4e4e7" stroke-width="1.2"/>
<rect x="60.0" y="60" width="22" height="2" fill="#6366f1"/>
<path fill="#0a0a0b" d="M60.8 96V93.9H61.9V86.2H60.8V84.1H66Q67.7 84.1 68.6 85Q69.5 85.9 69.5 87.2V87.4Q69.5 88.4 69 89Q68.4 89.6 67.5 89.9V90.2Q68.4 90.4 69 91Q69.5 91.7 69.5 92.7V92.9Q69.5 94.2 68.6 95.1Q67.7 96 66 96ZM64.1 89H65.8Q66.5 89 66.9 88.7Q67.4 88.3 67.4 87.7V87.6Q67.4 86.9 66.9 86.5Q66.5 86.2 65.8 86.2H64.1ZM64.1 93.9H65.8Q66.5 93.9 66.9 93.5Q67.4 93.2 67.4 92.5V92.4Q67.4 91.7 66.9 91.4Q66.5 91.1 65.8 91.1H64.1ZM71.9 96V84.1H76.5Q77.7 84.1 78.6 84.5Q79.4 85 79.8 85.7Q80.2 86.5 80.2 87.4V87.8Q80.2 88.5 79.8 89.2Q79.4 89.8 78.6 90.1V90.4Q79.2 90.5 79.6 90.9Q79.9 91.3 79.9 91.9V96H77.7V92.4Q77.7 92 77.5 91.8Q77.3 91.5 76.8 91.5H74.2V96ZM74.2 89.4H76.3Q77.1 89.4 77.6 89Q78 88.6 78 87.9V87.7Q78 87.1 77.6 86.7Q77.1 86.2 76.3 86.2H74.2ZM86.6 96.2Q84.6 96.2 83.4 95Q82.2 93.7 82.2 91.4V88.7Q82.2 86.4 83.4 85.1Q84.6 83.9 86.6 83.9Q88.7 83.9 89.8 85.1Q91 86.4 91 88.7V91.4Q91 93.7 89.8 95Q88.7 96.2 86.6 96.2ZM86.6 94.2Q87.8 94.2 88.3 93.4Q88.8 92.7 88.8 91.5V88.6Q88.8 87.8 88.5 87.2Q88.3 86.6 87.8 86.3Q87.4 85.9 86.6 85.9Q85.8 85.9 85.4 86.3Q84.9 86.6 84.7 87.2Q84.5 87.8 84.5 88.6V91.5Q84.5 92.7 84.9 93.4Q85.4 94.2 86.6 94.2ZM92.7 96 92.2 84.1H94.3L94.6 93.1V94.7H95V93.1L95.5 84.1H99.1L99.7 93.1V94.7H100.1V93.1L100.3 84.1H102.4L102 96H98.1L97.5 87V85.3H97.1V87L96.6 96ZM108.2 96.2Q106.6 96.2 105.6 95.7Q104.5 95.1 104 94.1Q103.4 93.1 103.4 91.9V91.4H105.7V91.8Q105.7 92.9 106.3 93.5Q106.9 94.1 108.2 94.1Q109.2 94.1 109.7 93.7Q110.2 93.2 110.2 92.6Q110.2 92.2 110 91.9Q109.9 91.6 109.4 91.3Q108.9 91.1 108 90.9Q106.8 90.7 105.8 90.3Q104.9 89.9 104.4 89.2Q103.8 88.5 103.8 87.4V87.3Q103.8 86.3 104.3 85.5Q104.9 84.7 105.8 84.3Q106.7 83.9 108 83.9Q109.4 83.9 110.3 84.4Q111.3 84.9 111.8 85.7Q112.3 86.6 112.3 87.5V88.1H110.1V87.7Q110.1 87 109.5 86.5Q109 86 108 86Q107.1 86 106.6 86.3Q106.1 86.7 106.1 87.3Q106.1 87.9 106.6 88.2Q107.2 88.6 108.7 88.9Q110.5 89.2 111.5 90Q112.5 90.8 112.5 92.4V92.6Q112.5 94.2 111.4 95.2Q110.2 96.2 108.2 96.2ZM114.9 96V84.1H122.4V86.2H117.2V89H122.2V91.1H117.2V93.9H122.6V96ZM125.5 96V84.1H130Q131.2 84.1 132.1 84.5Q132.9 85 133.3 85.7Q133.8 86.5 133.8 87.4V87.8Q133.8 88.5 133.4 89.2Q133 89.8 132.2 90.1V90.4Q132.8 90.5 133.1 90.9Q133.5 91.3 133.5 91.9V96H131.2V92.4Q131.2 92 131 91.8Q130.8 91.5 130.3 91.5H127.7V96ZM127.7 89.4H129.9Q130.7 89.4 131.1 89Q131.5 88.6 131.5 87.9V87.7Q131.5 87.1 131.1 86.7Q130.7 86.2 129.9 86.2H127.7Z"/>
<path fill="#52525b" d="M61.3 123V112.1H63L67.4 119.1Q67.6 119.3 67.8 119.8Q68.1 120.2 68.4 120.7Q68.6 121.3 68.9 121.9H68.7Q68.7 121.2 68.6 120.7Q68.6 120.1 68.6 119.6Q68.6 119.1 68.6 118.8V112.1H70V123H68.3L64.4 116.8Q64.1 116.4 63.8 115.9Q63.6 115.4 63.2 114.8Q62.8 114.2 62.3 113.3H62.6Q62.6 114.1 62.7 114.8Q62.7 115.5 62.7 116Q62.7 116.5 62.7 116.8V123ZM75.8 123.2Q74.7 123.2 73.8 122.6Q73 122.1 72.5 121.2Q72.1 120.2 72.1 119Q72.1 117.7 72.5 116.7Q73 115.8 73.8 115.2Q74.7 114.7 75.8 114.7Q76.9 114.7 77.8 115.2Q78.6 115.8 79.1 116.7Q79.5 117.7 79.5 119Q79.5 120.2 79.1 121.2Q78.6 122.1 77.8 122.6Q76.9 123.2 75.8 123.2ZM75.8 122Q76.6 122 77.2 121.6Q77.7 121.1 77.9 120.5Q78.2 119.8 78.2 119Q78.2 118.1 77.9 117.4Q77.7 116.7 77.2 116.3Q76.6 115.9 75.8 115.9Q75 115.9 74.4 116.3Q73.9 116.7 73.7 117.4Q73.4 118.1 73.4 119Q73.4 119.8 73.7 120.5Q73.9 121.1 74.4 121.6Q75 122 75.8 122ZM89 123.2Q87.9 123.2 87.1 122.6Q86.2 122.1 85.7 121.2Q85.3 120.2 85.3 119Q85.3 117.7 85.7 116.7Q86.2 115.8 87.1 115.2Q87.9 114.7 89 114.7Q89.6 114.7 90.1 114.9Q90.7 115 91.1 115.3Q91.5 115.6 91.8 116Q92.2 116.4 92.3 117L91.1 117.3Q91 117 90.8 116.8Q90.6 116.5 90.3 116.3Q90.1 116.1 89.7 116Q89.4 115.9 89 115.9Q88.2 115.9 87.7 116.3Q87.1 116.7 86.9 117.4Q86.6 118.1 86.6 119Q86.6 119.8 86.9 120.5Q87.1 121.1 87.7 121.6Q88.2 122 89 122Q89.4 122 89.8 121.9Q90.1 121.8 90.4 121.6Q90.6 121.4 90.8 121.1Q91 120.8 91.1 120.5L92.4 120.8Q92.2 121.4 91.9 121.8Q91.6 122.3 91.1 122.6Q90.7 122.9 90.1 123Q89.6 123.2 89 123.2ZM97.6 123.2Q96.5 123.2 95.6 122.6Q94.8 122.1 94.3 121.2Q93.8 120.2 93.8 119Q93.8 117.7 94.3 116.7Q94.8 115.8 95.6 115.2Q96.5 114.7 97.6 114.7Q98.7 114.7 99.5 115.2Q100.4 115.8 100.8 116.7Q101.3 117.7 101.3 119Q101.3 120.2 100.8 121.2Q100.4 122.1 99.5 122.6Q98.7 123.2 97.6 123.2ZM97.6 122Q98.4 122 98.9 121.6Q99.5 121.1 99.7 120.5Q100 119.8 100 119Q100 118.1 99.7 117.4Q99.5 116.7 98.9 116.3Q98.4 115.9 97.6 115.9Q96.8 115.9 96.2 116.3Q95.7 116.7 95.4 117.4Q95.2 118.1 95.2 119Q95.2 119.8 95.4 120.5Q95.7 121.1 96.2 121.6Q96.8 122 97.6 122ZM106.6 123.2Q105.5 123.2 104.6 122.6Q103.8 122.1 103.3 121.2Q102.8 120.2 102.8 119Q102.8 117.7 103.3 116.7Q103.8 115.8 104.6 115.2Q105.5 114.7 106.6 114.7Q107.7 114.7 108.5 115.2Q109.4 115.8 109.8 116.7Q110.3 117.7 110.3 119Q110.3 120.2 109.8 121.2Q109.4 122.1 108.5 122.6Q107.7 123.2 106.6 123.2ZM106.6 122Q107.4 122 107.9 121.6Q108.5 121.1 108.7 120.5Q109 119.8 109 119Q109 118.1 108.7 117.4Q108.5 116.7 107.9 116.3Q107.4 115.9 106.6 115.9Q105.7 115.9 105.2 116.3Q104.7 116.7 104.4 117.4Q104.2 118.1 104.2 119Q104.2 119.8 104.4 120.5Q104.7 121.1 105.2 121.6Q105.7 122 106.6 122ZM113.5 120.1V118.4H113.7L117.2 114.8H118.8L115.1 118.7H114.9ZM112.2 123V112.1H113.5V123ZM117.4 123 114.3 119 115.2 118.1 119.1 123ZM120.5 123V114.8H121.8V123ZM121.1 113.5Q120.8 113.5 120.5 113.2Q120.2 113 120.2 112.6Q120.2 112.2 120.5 112Q120.8 111.7 121.1 111.7Q121.5 111.7 121.8 112Q122.1 112.2 122.1 112.6Q122.1 113 121.8 113.2Q121.5 113.5 121.1 113.5ZM127.5 123.2Q126.4 123.2 125.5 122.6Q124.6 122.1 124.2 121.2Q123.7 120.2 123.7 119Q123.7 117.7 124.2 116.8Q124.6 115.8 125.4 115.3Q126.3 114.7 127.4 114.7Q128 114.7 128.7 114.9Q129.3 115.1 129.8 115.6Q130.3 116.1 130.6 116.9Q130.9 117.7 130.9 118.8V119.4H124.6V118.2H130.2L129.6 118.6Q129.6 117.8 129.4 117.2Q129.1 116.6 128.6 116.2Q128.1 115.9 127.4 115.9Q126.6 115.9 126.1 116.2Q125.6 116.6 125.3 117.2Q125 117.8 125 118.4V119.2Q125 120.1 125.3 120.7Q125.7 121.4 126.2 121.7Q126.8 122 127.5 122Q128 122 128.4 121.9Q128.8 121.7 129.1 121.4Q129.4 121.2 129.5 120.7L130.8 121.1Q130.6 121.7 130.2 122.2Q129.7 122.6 129 122.9Q128.4 123.2 127.5 123.2ZM133.8 123.1Q133.4 123.1 133.1 122.8Q132.9 122.5 132.9 122.1Q132.9 121.7 133.1 121.4Q133.4 121.1 133.8 121.1Q134.3 121.1 134.5 121.4Q134.8 121.7 134.8 122.1Q134.8 122.5 134.5 122.8Q134.3 123.1 133.8 123.1ZM140.6 123 144.6 112.1H146.2L150.2 123H148.7L146.4 116.5Q146.2 115.9 145.9 115Q145.6 114.1 145.2 112.7H145.5Q145.1 114.1 144.8 115.1Q144.5 116 144.3 116.5L142.1 123ZM142.6 120V118.7H148.2V120ZM159.7 123.2Q159 123.2 158.5 122.9Q158 122.6 157.8 122.3Q157.5 122 157.4 121.7H157.2V123H155.9V112.1H157.3V116.1H157.4Q157.5 115.9 157.8 115.6Q158 115.2 158.5 115Q158.9 114.7 159.7 114.7Q160.8 114.7 161.5 115.2Q162.3 115.7 162.8 116.7Q163.2 117.6 163.2 118.9Q163.2 120.2 162.8 121.2Q162.3 122.1 161.6 122.7Q160.8 123.2 159.7 123.2ZM159.6 122Q160.3 122 160.8 121.6Q161.4 121.2 161.6 120.5Q161.9 119.8 161.9 118.9Q161.9 118.1 161.6 117.4Q161.4 116.7 160.8 116.3Q160.3 115.9 159.6 115.9Q158.8 115.9 158.3 116.3Q157.8 116.6 157.5 117.3Q157.3 118 157.3 118.9Q157.3 119.8 157.5 120.5Q157.8 121.2 158.3 121.6Q158.8 122 159.6 122ZM168.6 123.2Q167.4 123.2 166.5 122.6Q165.7 122.1 165.2 121.2Q164.7 120.2 164.7 119Q164.7 117.7 165.2 116.8Q165.6 115.8 166.5 115.3Q167.3 114.7 168.4 114.7Q169.1 114.7 169.7 114.9Q170.3 115.1 170.9 115.6Q171.4 116.1 171.7 116.9Q172 117.7 172 118.8V119.4H165.6V118.2H171.3L170.7 118.6Q170.7 117.8 170.4 117.2Q170.2 116.6 169.7 116.2Q169.2 115.9 168.4 115.9Q167.7 115.9 167.2 116.2Q166.6 116.6 166.3 117.2Q166.1 117.8 166.1 118.4V119.2Q166.1 120.1 166.4 120.7Q166.7 121.4 167.3 121.7Q167.8 122 168.6 122Q169.1 122 169.5 121.9Q169.9 121.7 170.1 121.4Q170.4 121.2 170.6 120.7L171.9 121.1Q171.7 121.7 171.2 122.2Q170.8 122.6 170.1 122.9Q169.4 123.2 168.6 123.2ZM176.2 123.2Q175.4 123.2 174.8 122.9Q174.1 122.6 173.8 122Q173.4 121.5 173.4 120.7Q173.4 120 173.7 119.5Q173.9 119.1 174.4 118.8Q174.9 118.6 175.4 118.5Q176 118.3 176.6 118.3Q177.3 118.2 177.8 118.1Q178.2 118.1 178.4 117.9Q178.7 117.8 178.7 117.5V117.5Q178.7 117 178.5 116.6Q178.3 116.2 177.9 116.1Q177.5 115.9 177 115.9Q176.4 115.9 175.9 116Q175.5 116.2 175.3 116.5Q175 116.8 174.9 117.1L173.6 116.6Q173.9 115.9 174.5 115.5Q175 115.1 175.6 114.9Q176.3 114.7 176.9 114.7Q177.3 114.7 177.9 114.8Q178.4 114.9 178.9 115.2Q179.3 115.5 179.7 116.1Q180 116.6 180 117.6V123H178.7V121.9H178.6Q178.5 122.2 178.2 122.5Q177.8 122.8 177.4 123Q176.9 123.2 176.2 123.2ZM176.4 122Q177.1 122 177.6 121.7Q178.1 121.5 178.4 121Q178.7 120.5 178.7 120V118.9Q178.6 119 178.3 119.1Q178 119.2 177.7 119.2Q177.3 119.3 177 119.3Q176.7 119.4 176.5 119.4Q176 119.4 175.6 119.6Q175.2 119.7 175 120Q174.7 120.3 174.7 120.7Q174.7 121.2 174.9 121.4Q175.1 121.7 175.5 121.9Q175.9 122 176.4 122ZM185.6 123.2Q184.5 123.2 183.7 122.6Q182.8 122.1 182.4 121.2Q181.9 120.2 181.9 119Q181.9 117.7 182.4 116.7Q182.8 115.8 183.7 115.2Q184.5 114.7 185.6 114.7Q186.2 114.7 186.8 114.9Q187.3 115 187.7 115.3Q188.2 115.6 188.5 116Q188.8 116.4 189 117L187.7 117.3Q187.6 117 187.4 116.8Q187.2 116.5 187 116.3Q186.7 116.1 186.4 116Q186 115.9 185.6 115.9Q184.8 115.9 184.3 116.3Q183.8 116.7 183.5 117.4Q183.2 118.1 183.2 119Q183.2 119.8 183.5 120.5Q183.8 121.1 184.3 121.6Q184.8 122 185.6 122Q186 122 186.4 121.9Q186.7 121.8 187 121.6Q187.3 121.4 187.4 121.1Q187.6 120.8 187.7 120.5L189 120.8Q188.8 121.4 188.5 121.8Q188.2 122.3 187.7 122.6Q187.3 122.9 186.8 123Q186.2 123.2 185.6 123.2ZM194.2 123.2Q193.1 123.2 192.2 122.6Q191.4 122.1 190.9 121.2Q190.5 120.2 190.5 119Q190.5 117.7 190.9 116.7Q191.4 115.8 192.2 115.2Q193.1 114.7 194.2 114.7Q195.3 114.7 196.2 115.2Q197 115.8 197.5 116.7Q197.9 117.7 197.9 119Q197.9 120.2 197.5 121.2Q197 122.1 196.2 122.6Q195.3 123.2 194.2 123.2ZM194.2 122Q195 122 195.6 121.6Q196.1 121.1 196.4 120.5Q196.6 119.8 196.6 119Q196.6 118.1 196.4 117.4Q196.1 116.7 195.6 116.3Q195 115.9 194.2 115.9Q193.4 115.9 192.9 116.3Q192.3 116.7 192.1 117.4Q191.8 118.1 191.8 119Q191.8 119.8 192.1 120.5Q192.3 121.1 192.9 121.6Q193.4 122 194.2 122ZM201.2 118.1V123H199.9V114.8H201.1L201.1 116.8H201Q201.3 115.7 202 115.2Q202.7 114.7 203.6 114.7Q204.5 114.7 205.1 115Q205.7 115.4 206.1 116.1Q206.4 116.8 206.4 117.8V123H205.1V117.9Q205.1 117 204.6 116.4Q204.1 115.9 203.2 115.9Q202.7 115.9 202.2 116.2Q201.7 116.4 201.5 116.9Q201.2 117.4 201.2 118.1ZM212.9 126.1V114.8H214.2V116.1H214.4Q214.5 115.9 214.8 115.6Q215 115.2 215.5 115Q215.9 114.7 216.7 114.7Q217.8 114.7 218.5 115.2Q219.3 115.7 219.8 116.7Q220.2 117.6 220.2 118.9Q220.2 120.2 219.8 121.2Q219.3 122.1 218.6 122.7Q217.8 123.2 216.7 123.2Q216 123.2 215.5 122.9Q215 122.6 214.8 122.3Q214.5 122 214.4 121.7H214.3V126.1ZM216.5 122Q217.3 122 217.8 121.6Q218.3 121.2 218.6 120.5Q218.9 119.8 218.9 118.9Q218.9 118.1 218.6 117.4Q218.4 116.7 217.8 116.3Q217.3 115.9 216.5 115.9Q215.8 115.9 215.3 116.3Q214.8 116.6 214.5 117.3Q214.2 118 214.2 118.9Q214.2 119.8 214.5 120.5Q214.8 121.2 215.3 121.6Q215.8 122 216.5 122ZM225.6 123.2Q224.4 123.2 223.5 122.6Q222.7 122.1 222.2 121.2Q221.7 120.2 221.7 119Q221.7 117.7 222.2 116.8Q222.6 115.8 223.5 115.3Q224.3 114.7 225.4 114.7Q226.1 114.7 226.7 114.9Q227.3 115.1 227.9 115.6Q228.4 116.1 228.7 116.9Q229 117.7 229 118.8V119.4H222.6V118.2H228.3L227.7 118.6Q227.7 117.8 227.4 117.2Q227.2 116.6 226.7 116.2Q226.2 115.9 225.4 115.9Q224.7 115.9 224.2 116.2Q223.6 116.6 223.3 117.2Q223.1 117.8 223.1 118.4V119.2Q223.1 120.1 223.4 120.7Q223.7 121.4 224.3 121.7Q224.8 122 225.6 122Q226.1 122 226.5 121.9Q226.9 121.7 227.1 121.4Q227.4 121.2 227.6 120.7L228.9 121.1Q228.7 121.7 228.2 122.2Q227.8 122.6 227.1 122.9Q226.4 123.2 225.6 123.2ZM230.9 123V114.8H232.1V116.1H232.2Q232.5 115.4 233 115.1Q233.6 114.7 234.4 114.7Q234.5 114.7 234.7 114.7Q234.9 114.7 235 114.7V116Q235 116 234.7 116Q234.5 116 234.2 116Q233.6 116 233.2 116.2Q232.7 116.5 232.5 116.9Q232.2 117.3 232.2 117.9V123ZM240.7 126.1V114.8H242V116.1H242.2Q242.3 115.9 242.5 115.6Q242.8 115.2 243.3 115Q243.7 114.7 244.5 114.7Q245.6 114.7 246.3 115.2Q247.1 115.7 247.6 116.7Q248 117.6 248 118.9Q248 120.2 247.6 121.2Q247.1 122.1 246.3 122.7Q245.6 123.2 244.5 123.2Q243.8 123.2 243.3 122.9Q242.8 122.6 242.6 122.3Q242.3 122 242.2 121.7H242.1V126.1ZM244.3 122Q245.1 122 245.6 121.6Q246.1 121.2 246.4 120.5Q246.7 119.8 246.7 118.9Q246.7 118.1 246.4 117.4Q246.2 116.7 245.6 116.3Q245.1 115.9 244.3 115.9Q243.6 115.9 243.1 116.3Q242.6 116.6 242.3 117.3Q242 118 242 118.9Q242 119.8 242.3 120.5Q242.6 121.2 243.1 121.6Q243.6 122 244.3 122ZM252.2 123.2Q251.4 123.2 250.8 122.9Q250.2 122.6 249.8 122Q249.4 121.5 249.4 120.7Q249.4 120 249.7 119.5Q250 119.1 250.4 118.8Q250.9 118.6 251.5 118.5Q252 118.3 252.6 118.3Q253.3 118.2 253.8 118.1Q254.3 118.1 254.5 117.9Q254.7 117.8 254.7 117.5V117.5Q254.7 117 254.5 116.6Q254.3 116.2 254 116.1Q253.6 115.9 253 115.9Q252.4 115.9 252 116Q251.6 116.2 251.3 116.5Q251.1 116.8 250.9 117.1L249.7 116.6Q250 115.9 250.5 115.5Q251 115.1 251.7 114.9Q252.3 114.7 253 114.7Q253.4 114.7 253.9 114.8Q254.4 114.9 254.9 115.2Q255.4 115.5 255.7 116.1Q256 116.6 256 117.6V123H254.7V121.9H254.6Q254.5 122.2 254.2 122.5Q253.9 122.8 253.4 123Q252.9 123.2 252.2 123.2ZM252.4 122Q253.2 122 253.7 121.7Q254.2 121.5 254.5 121Q254.7 120.5 254.7 120V118.9Q254.6 119 254.4 119.1Q254.1 119.2 253.7 119.2Q253.4 119.3 253.1 119.3Q252.7 119.4 252.6 119.4Q252.1 119.4 251.7 119.6Q251.2 119.7 251 120Q250.8 120.3 250.8 120.7Q250.8 121.2 251 121.4Q251.2 121.7 251.6 121.9Q252 122 252.4 122ZM261.7 126.2Q260.8 126.2 260.1 126Q259.4 125.8 259 125.4Q258.6 125 258.3 124.6L259.4 123.9Q259.5 124.1 259.8 124.4Q260.1 124.7 260.5 124.9Q260.9 125.1 261.7 125.1Q262.6 125.1 263.3 124.6Q263.9 124.1 263.9 123.1V121.5H263.8Q263.6 121.7 263.4 122.1Q263.1 122.4 262.7 122.6Q262.2 122.9 261.4 122.9Q260.4 122.9 259.6 122.4Q258.9 121.9 258.4 121Q258 120.2 258 118.9Q258 117.6 258.4 116.7Q258.8 115.7 259.6 115.2Q260.4 114.7 261.4 114.7Q262.2 114.7 262.7 115Q263.2 115.2 263.4 115.6Q263.7 115.9 263.8 116.1H264V114.8H265.2V123.2Q265.2 124.3 264.8 124.9Q264.3 125.6 263.5 125.9Q262.7 126.2 261.7 126.2ZM261.6 121.7Q262.4 121.7 262.9 121.4Q263.4 121 263.7 120.4Q263.9 119.7 263.9 118.8Q263.9 118 263.7 117.3Q263.4 116.6 262.9 116.3Q262.4 115.9 261.6 115.9Q260.9 115.9 260.3 116.3Q259.8 116.7 259.6 117.4Q259.3 118 259.3 118.8Q259.3 119.7 259.6 120.3Q259.8 121 260.3 121.3Q260.9 121.7 261.6 121.7ZM271 123.2Q269.8 123.2 268.9 122.6Q268.1 122.1 267.6 121.2Q267.2 120.2 267.2 119Q267.2 117.7 267.6 116.8Q268.1 115.8 268.9 115.3Q269.7 114.7 270.8 114.7Q271.5 114.7 272.1 114.9Q272.8 115.1 273.3 115.6Q273.8 116.1 274.1 116.9Q274.4 117.7 274.4 118.8V119.4H268V118.2H273.7L273.1 118.6Q273.1 117.8 272.8 117.2Q272.6 116.6 272.1 116.2Q271.6 115.9 270.8 115.9Q270.1 115.9 269.6 116.2Q269 116.6 268.8 117.2Q268.5 117.8 268.5 118.4V119.2Q268.5 120.1 268.8 120.7Q269.1 121.4 269.7 121.7Q270.2 122 271 122Q271.5 122 271.9 121.9Q272.3 121.7 272.6 121.4Q272.8 121.2 273 120.7L274.3 121.1Q274.1 121.7 273.6 122.2Q273.2 122.6 272.5 122.9Q271.8 123.2 271 123.2Z"/>
<path fill="#52525b" d="M63.5 145 60.4 136.8H61.8L63.6 141.7Q63.9 142.4 64.1 143.2Q64.2 143.9 64.5 144.6H64Q64.2 143.9 64.4 143.2Q64.6 142.4 64.8 141.7L66.6 136.8H68L64.9 145ZM69.6 145V136.8H70.9V145ZM70.3 135.5Q69.9 135.5 69.6 135.2Q69.3 135 69.3 134.6Q69.3 134.2 69.6 134Q69.9 133.7 70.3 133.7Q70.6 133.7 70.9 134Q71.2 134.2 71.2 134.6Q71.2 135 70.9 135.2Q70.6 135.5 70.3 135.5ZM76.7 145.2Q75.5 145.2 74.6 144.6Q73.8 144.1 73.3 143.2Q72.8 142.2 72.8 141Q72.8 139.7 73.3 138.8Q73.7 137.8 74.6 137.3Q75.4 136.7 76.5 136.7Q77.2 136.7 77.8 136.9Q78.4 137.1 78.9 137.6Q79.5 138.1 79.8 138.9Q80.1 139.7 80.1 140.8V141.4H73.7V140.2H79.4L78.8 140.6Q78.8 139.8 78.5 139.2Q78.2 138.6 77.7 138.2Q77.2 137.9 76.5 137.9Q75.8 137.9 75.2 138.2Q74.7 138.6 74.4 139.2Q74.2 139.8 74.2 140.4V141.2Q74.2 142.1 74.5 142.7Q74.8 143.4 75.4 143.7Q75.9 144 76.7 144Q77.2 144 77.5 143.9Q77.9 143.7 78.2 143.4Q78.5 143.2 78.7 142.7L79.9 143.1Q79.8 143.7 79.3 144.2Q78.8 144.6 78.2 144.9Q77.5 145.2 76.7 145.2ZM83.8 145 81.3 136.8H82.7L83.7 140.4Q83.9 141.1 84.2 142Q84.4 143 84.6 144.1H84.4Q84.6 143 84.8 142.1Q85.1 141.2 85.3 140.4L86.3 136.8H87.7L88.6 140.4Q88.8 141.1 89.1 142.1Q89.3 143 89.5 144.1H89.3Q89.5 143 89.7 142.1Q90 141.2 90.2 140.4L91.2 136.8H92.6L90.1 145H88.8L87.7 141.3Q87.6 140.7 87.4 140.1Q87.2 139.6 87.1 138.9Q87 138.3 86.8 137.7H87.1Q86.9 138.3 86.8 138.9Q86.6 139.6 86.5 140.2Q86.3 140.7 86.2 141.3L85.1 145ZM95.2 145.1Q94.8 145.1 94.5 144.8Q94.3 144.5 94.3 144.1Q94.3 143.7 94.5 143.4Q94.8 143.1 95.2 143.1Q95.7 143.1 95.9 143.4Q96.2 143.7 96.2 144.1Q96.2 144.5 95.9 144.8Q95.7 145.1 95.2 145.1Z"/>
<line x1="310.0" y1="109.5" x2="337.0" y2="109.5" stroke="#6366f1" stroke-width="2"/>
<path d="M346.0 109.5 L336.0 104.5 L336.0 114.5 Z" fill="#6366f1"/>
<rect x="352.0" y="40" width="264.0" height="139" rx="16" fill="#ffffff" fill-opacity="0.92" stroke="#6366f1" stroke-width="1.6"/>
<rect x="372.0" y="60" width="22" height="2" fill="#6366f1"/>
<path fill="#0a0a0b" d="M373 96V84.1H377.4L378.8 94.9H379.1V84.1H381.4V96H377L375.6 85.2H375.3V96ZM384.1 96V84.1H391.6V86.2H386.3V89H391.4V91.1H386.3V93.9H391.8V96ZM394 96 396.4 90.2V89.9L394 84.1H396.4L398.4 89H398.8L400.8 84.1H403.3L400.8 89.9V90.2L403.3 96H400.8L398.8 91.1H398.4L396.4 96ZM408.2 96V86.2H405V84.1H413.6V86.2H410.4V96ZM420 96.2Q419.4 96.2 418.9 95.8Q418.4 95.3 418.4 94.6Q418.4 93.9 418.9 93.5Q419.4 93 420 93Q420.7 93 421.2 93.5Q421.6 93.9 421.6 94.6Q421.6 95.3 421.2 95.8Q420.7 96.2 420 96.2ZM430.6 96.2Q428.8 96.2 427.7 95.3Q426.6 94.3 426.6 92.4V91.3H428.8V92.4Q428.8 93.2 429.3 93.7Q429.7 94.1 430.5 94.1Q431.2 94.1 431.6 93.7Q432.1 93.2 432.1 92.4V86.2H430.8V84.1H435.3V86.2H434.3V92.4Q434.3 94.3 433.3 95.3Q432.3 96.2 430.6 96.2ZM441.6 96.2Q440 96.2 439 95.7Q437.9 95.1 437.4 94.1Q436.8 93.1 436.8 91.9V91.4H439.1V91.8Q439.1 92.9 439.7 93.5Q440.3 94.1 441.6 94.1Q442.7 94.1 443.1 93.7Q443.6 93.2 443.6 92.6Q443.6 92.2 443.4 91.9Q443.3 91.6 442.8 91.3Q442.3 91.1 441.4 90.9Q440.2 90.7 439.2 90.3Q438.3 89.9 437.8 89.2Q437.2 88.5 437.2 87.4V87.3Q437.2 86.3 437.8 85.5Q438.3 84.7 439.2 84.3Q440.1 83.9 441.4 83.9Q442.8 83.9 443.7 84.4Q444.7 84.9 445.2 85.7Q445.7 86.6 445.7 87.5V88.1H443.5V87.7Q443.5 87 442.9 86.5Q442.4 86 441.4 86Q440.5 86 440 86.3Q439.5 86.7 439.5 87.3Q439.5 87.9 440.1 88.2Q440.6 88.6 442.1 88.9Q443.9 89.2 444.9 90Q445.9 90.8 445.9 92.4V92.6Q445.9 94.2 444.8 95.2Q443.6 96.2 441.6 96.2ZM458.8 96V93.9H462.1V85.2H461.8L460.7 89.3H458.6V89.1L460 84.1H464.4V93.9H467.3V96ZM474.3 96V93.8H469V90.7L472.3 84.1H476.5V91.6H478.3V93.8H476.5V96ZM470.9 91.6H474.3V85.2H474L470.9 91.3Z"/>
<path fill="#52525b" d="M372.4 123 376.3 112.1H378L382 123H380.5L378.2 116.5Q378 115.9 377.7 115Q377.4 114.1 377 112.7H377.3Q376.9 114.1 376.6 115.1Q376.3 116 376.1 116.5L373.9 123ZM374.4 120V118.7H380V120ZM383.5 126.1V114.8H384.8V116.1H384.9Q385.1 115.9 385.3 115.6Q385.6 115.2 386 115Q386.5 114.7 387.3 114.7Q388.3 114.7 389.1 115.2Q389.9 115.7 390.3 116.7Q390.8 117.6 390.8 118.9Q390.8 120.2 390.3 121.2Q389.9 122.1 389.1 122.7Q388.3 123.2 387.3 123.2Q386.5 123.2 386.1 122.9Q385.6 122.6 385.3 122.3Q385.1 122 384.9 121.7H384.8V126.1ZM387.1 122Q387.9 122 388.4 121.6Q388.9 121.2 389.2 120.5Q389.4 119.8 389.4 118.9Q389.4 118.1 389.2 117.4Q388.9 116.7 388.4 116.3Q387.9 115.9 387.1 115.9Q386.4 115.9 385.8 116.3Q385.3 116.6 385.1 117.3Q384.8 118 384.8 118.9Q384.8 119.8 385.1 120.5Q385.3 121.2 385.9 121.6Q386.4 122 387.1 122ZM392.7 126.1V114.8H394V116.1H394.1Q394.3 115.9 394.5 115.6Q394.7 115.2 395.2 115Q395.7 114.7 396.5 114.7Q397.5 114.7 398.3 115.2Q399.1 115.7 399.5 116.7Q400 117.6 400 118.9Q400 120.2 399.5 121.2Q399.1 122.1 398.3 122.7Q397.5 123.2 396.5 123.2Q395.7 123.2 395.2 122.9Q394.8 122.6 394.5 122.3Q394.3 122 394.1 121.7H394V126.1ZM396.3 122Q397.1 122 397.6 121.6Q398.1 121.2 398.4 120.5Q398.6 119.8 398.6 118.9Q398.6 118.1 398.4 117.4Q398.1 116.7 397.6 116.3Q397.1 115.9 396.3 115.9Q395.5 115.9 395 116.3Q394.5 116.6 394.3 117.3Q394 118 394 118.9Q394 119.8 394.3 120.5Q394.5 121.2 395 121.6Q395.6 122 396.3 122ZM406.3 123V112.1H410Q411.3 112.1 412.1 112.5Q412.9 113 413.3 113.7Q413.7 114.5 413.7 115.5Q413.7 116.4 413.3 117.2Q412.9 117.9 412.1 118.3Q411.3 118.8 410 118.8H407V117.5H409.9Q410.8 117.5 411.3 117.3Q411.8 117 412.1 116.6Q412.3 116.1 412.3 115.5Q412.3 114.8 412.1 114.3Q411.8 113.8 411.3 113.6Q410.8 113.3 409.9 113.3H407.6V123ZM412.5 123 409.9 118.1H411.5L414.1 123ZM419.1 123.2Q418 123.2 417.1 122.6Q416.3 122.1 415.8 121.2Q415.4 120.2 415.4 119Q415.4 117.7 415.8 116.7Q416.3 115.8 417.1 115.2Q418 114.7 419.1 114.7Q420.2 114.7 421 115.2Q421.9 115.8 422.4 116.7Q422.8 117.7 422.8 119Q422.8 120.2 422.4 121.2Q421.9 122.1 421 122.6Q420.2 123.2 419.1 123.2ZM419.1 122Q419.9 122 420.4 121.6Q421 121.1 421.2 120.5Q421.5 119.8 421.5 119Q421.5 118.1 421.2 117.4Q421 116.7 420.4 116.3Q419.9 115.9 419.1 115.9Q418.3 115.9 417.7 116.3Q417.2 116.7 416.9 117.4Q416.7 118.1 416.7 119Q416.7 119.8 416.9 120.5Q417.2 121.1 417.7 121.6Q418.3 122 419.1 122ZM427.5 123.1Q426.7 123.1 426.1 122.8Q425.4 122.4 425.1 121.7Q424.7 121 424.7 120V114.8H426.1V119.9Q426.1 120.8 426.6 121.4Q427.1 121.9 427.9 121.9Q428.5 121.9 429 121.7Q429.4 121.4 429.7 120.9Q430 120.4 430 119.7V114.8H431.3V123H430V121H430.2Q429.8 122.2 429.1 122.6Q428.4 123.1 427.5 123.1ZM436.8 114.8V115.9H432.6V114.8ZM433.8 112.9H435.1V120.9Q435.1 121.4 435.4 121.7Q435.6 121.9 436.1 121.9Q436.2 121.9 436.4 121.9Q436.6 121.9 436.8 121.8L437.1 123Q436.9 123 436.6 123.1Q436.3 123.1 436.1 123.1Q435 123.1 434.4 122.5Q433.8 122 433.8 121ZM442 123.2Q440.8 123.2 439.9 122.6Q439.1 122.1 438.6 121.2Q438.1 120.2 438.1 119Q438.1 117.7 438.6 116.8Q439 115.8 439.9 115.3Q440.7 114.7 441.8 114.7Q442.5 114.7 443.1 114.9Q443.7 115.1 444.2 115.6Q444.8 116.1 445.1 116.9Q445.4 117.7 445.4 118.8V119.4H439V118.2H444.7L444 118.6Q444 117.8 443.8 117.2Q443.5 116.6 443 116.2Q442.5 115.9 441.8 115.9Q441.1 115.9 440.5 116.2Q440 116.6 439.7 117.2Q439.5 117.8 439.5 118.4V119.2Q439.5 120.1 439.8 120.7Q440.1 121.4 440.7 121.7Q441.2 122 442 122Q442.5 122 442.8 121.9Q443.2 121.7 443.5 121.4Q443.8 121.2 444 120.7L445.2 121.1Q445.1 121.7 444.6 122.2Q444.1 122.6 443.5 122.9Q442.8 123.2 442 123.2ZM447.3 123V114.8H448.5V116.1H448.6Q448.9 115.4 449.4 115.1Q450 114.7 450.8 114.7Q450.9 114.7 451.1 114.7Q451.3 114.7 451.4 114.7V116Q451.4 116 451.1 116Q450.9 116 450.6 116Q450 116 449.6 116.2Q449.1 116.5 448.8 116.9Q448.6 117.3 448.6 117.9V123ZM452.7 125.6 453.3 121.5H454.8L453.7 125.6ZM462.8 118.1V123H461.5V114.8H462.7L462.7 116.8H462.5Q462.9 115.7 463.6 115.2Q464.3 114.7 465.2 114.7Q466.1 114.7 466.7 115Q467.3 115.4 467.7 116.1Q468 116.8 468 117.8V123H466.7V117.9Q466.7 117 466.2 116.4Q465.7 115.9 464.8 115.9Q464.2 115.9 463.8 116.2Q463.3 116.4 463 116.9Q462.8 117.4 462.8 118.1ZM473.8 123.2Q472.6 123.2 471.7 122.6Q470.8 122.1 470.4 121.2Q469.9 120.2 469.9 119Q469.9 117.7 470.4 116.8Q470.8 115.8 471.7 115.3Q472.5 114.7 473.6 114.7Q474.3 114.7 474.9 114.9Q475.5 115.1 476 115.6Q476.6 116.1 476.9 116.9Q477.2 117.7 477.2 118.8V119.4H470.8V118.2H476.5L475.8 118.6Q475.8 117.8 475.6 117.2Q475.3 116.6 474.8 116.2Q474.3 115.9 473.6 115.9Q472.9 115.9 472.3 116.2Q471.8 116.6 471.5 117.2Q471.3 117.8 471.3 118.4V119.2Q471.3 120.1 471.6 120.7Q471.9 121.4 472.4 121.7Q473 122 473.8 122Q474.2 122 474.6 121.9Q475 121.7 475.3 121.4Q475.6 121.2 475.8 120.7L477 121.1Q476.8 121.7 476.4 122.2Q475.9 122.6 475.3 122.9Q474.6 123.2 473.8 123.2ZM478.4 123 481.6 118.3 481.6 119.3 478.5 114.8H480.1L481.1 116.4Q481.5 117 481.8 117.6Q482.1 118.1 482.4 118.6H481.7Q482 118.1 482.3 117.6Q482.5 117 482.9 116.4L484 114.8H485.5L482.4 119.4V118.4L485.6 123H484.1L482.9 121.2Q482.5 120.6 482.2 120Q481.9 119.5 481.6 119.1H482.3Q482 119.5 481.8 120Q481.5 120.6 481.1 121.2L479.9 123ZM490.5 114.8V115.9H486.2V114.8ZM487.5 112.9H488.8V120.9Q488.8 121.4 489 121.7Q489.2 121.9 489.8 121.9Q489.9 121.9 490.1 121.9Q490.3 121.9 490.4 121.8L490.7 123Q490.5 123 490.2 123.1Q490 123.1 489.7 123.1Q488.7 123.1 488.1 122.5Q487.5 122 487.5 121ZM496.8 117.7V118.9H492.1V117.7ZM499.1 123V114.8H500.4V123ZM499.7 113.5Q499.3 113.5 499.1 113.2Q498.8 113 498.8 112.6Q498.8 112.2 499.1 112Q499.3 111.7 499.7 111.7Q500.1 111.7 500.4 112Q500.6 112.2 500.6 112.6Q500.6 113 500.4 113.2Q500.1 113.5 499.7 113.5ZM504 118.1V123H502.7V114.8H504L504 116.8H503.8Q504.2 115.7 504.8 115.2Q505.5 114.7 506.5 114.7Q507.3 114.7 507.9 115Q508.5 115.4 508.9 116.1Q509.2 116.8 509.2 117.8V123H507.9V117.9Q507.9 117 507.4 116.4Q506.9 115.9 506.1 115.9Q505.5 115.9 505 116.2Q504.5 116.4 504.3 116.9Q504 117.4 504 118.1ZM514.8 114.8V115.9H510.5V114.8ZM511.8 112.9H513.1V120.9Q513.1 121.4 513.3 121.7Q513.5 121.9 514.1 121.9Q514.2 121.9 514.4 121.9Q514.6 121.9 514.7 121.8L515 123Q514.8 123 514.5 123.1Q514.3 123.1 514 123.1Q513 123.1 512.4 122.5Q511.8 122 511.8 121ZM517.8 112.1V123H516.5V112.1ZM519.9 125.6 520.5 121.5H522L520.9 125.6ZM531.4 123.2Q530.6 123.2 529.9 122.9Q529.3 122.7 528.8 122.2Q528.4 121.7 528.3 121L529.5 120.7Q529.7 121.4 530.2 121.7Q530.7 122 531.4 122Q532.3 122 532.8 121.7Q533.3 121.3 533.3 120.8Q533.3 120.4 533 120.1Q532.7 119.8 532.1 119.7L530.7 119.3Q529.6 119.1 529.1 118.5Q528.5 118 528.5 117.1Q528.5 116.4 528.9 115.9Q529.3 115.3 530 115Q530.7 114.7 531.5 114.7Q532.4 114.7 533 115Q533.6 115.2 533.9 115.7Q534.3 116.1 534.5 116.7L533.3 117Q533.1 116.5 532.7 116.2Q532.3 115.8 531.6 115.8Q530.8 115.8 530.3 116.2Q529.8 116.5 529.8 117Q529.8 117.5 530.2 117.7Q530.5 118 531.2 118.2L532.5 118.5Q533.6 118.7 534.1 119.3Q534.6 119.9 534.6 120.7Q534.6 121.4 534.2 122Q533.8 122.5 533.1 122.9Q532.4 123.2 531.4 123.2ZM539.8 114.8V115.9H535.5V114.8ZM536.8 112.9H538.1V120.9Q538.1 121.4 538.3 121.7Q538.5 121.9 539.1 121.9Q539.2 121.9 539.4 121.9Q539.6 121.9 539.7 121.8L540 123Q539.8 123 539.5 123.1Q539.3 123.1 539 123.1Q538 123.1 537.4 122.5Q536.8 122 536.8 121ZM541.5 123V114.8H542.7V116.1H542.8Q543 115.4 543.6 115.1Q544.2 114.7 544.9 114.7Q545.1 114.7 545.3 114.7Q545.5 114.7 545.6 114.7V116Q545.5 116 545.3 116Q545.1 116 544.8 116Q544.2 116 543.8 116.2Q543.3 116.5 543 116.9Q542.8 117.3 542.8 117.9V123ZM547.1 123V114.8H548.4V123ZM547.8 113.5Q547.4 113.5 547.1 113.2Q546.9 113 546.9 112.6Q546.9 112.2 547.1 112Q547.4 111.7 547.8 111.7Q548.1 111.7 548.4 112Q548.7 112.2 548.7 112.6Q548.7 113 548.4 113.2Q548.1 113.5 547.8 113.5ZM554.1 123.2Q553 123.2 552.1 122.6Q551.3 122.1 550.8 121.2Q550.3 120.2 550.3 119Q550.3 117.7 550.8 116.7Q551.3 115.8 552.1 115.2Q553 114.7 554.1 114.7Q554.7 114.7 555.2 114.9Q555.7 115 556.1 115.3Q556.6 115.6 556.9 116Q557.2 116.4 557.4 117L556.1 117.3Q556 117 555.8 116.8Q555.7 116.5 555.4 116.3Q555.1 116.1 554.8 116Q554.5 115.9 554.1 115.9Q553.2 115.9 552.7 116.3Q552.2 116.7 551.9 117.4Q551.7 118.1 551.7 119Q551.7 119.8 551.9 120.5Q552.2 121.1 552.7 121.6Q553.2 122 554.1 122Q554.5 122 554.8 121.9Q555.2 121.8 555.4 121.6Q555.7 121.4 555.9 121.1Q556.1 120.8 556.2 120.5L557.4 120.8Q557.3 121.4 556.9 121.8Q556.6 122.3 556.2 122.6Q555.7 122.9 555.2 123Q554.7 123.2 554.1 123.2ZM562.5 114.8V115.9H558.3V114.8ZM559.5 112.9H560.8V120.9Q560.8 121.4 561.1 121.7Q561.3 121.9 561.8 121.9Q561.9 121.9 562.1 121.9Q562.3 121.9 562.5 121.8L562.8 123Q562.5 123 562.3 123.1Q562 123.1 561.8 123.1Q560.7 123.1 560.1 122.5Q559.5 122 559.5 121Z"/>
<path fill="#52525b" d="M377.7 145.1Q376.3 145.1 375.2 144.5Q374.1 143.8 373.5 142.5Q372.9 141.3 372.9 139.6Q372.9 137.8 373.5 136.6Q374.1 135.3 375.2 134.6Q376.3 133.9 377.7 133.9Q378.6 133.9 379.3 134.2Q380 134.4 380.6 134.9Q381.2 135.4 381.6 136Q382 136.7 382.1 137.5H380.7Q380.6 137 380.3 136.5Q380.1 136.1 379.7 135.8Q379.3 135.5 378.8 135.4Q378.3 135.2 377.7 135.2Q376.8 135.2 376 135.7Q375.2 136.2 374.7 137.2Q374.2 138.2 374.2 139.6Q374.2 140.9 374.7 141.9Q375.2 142.9 376 143.4Q376.8 143.9 377.7 143.9Q378.3 143.9 378.8 143.7Q379.3 143.6 379.7 143.3Q380.1 143 380.3 142.6Q380.6 142.1 380.7 141.6H382.1Q382 142.4 381.6 143.1Q381.2 143.7 380.6 144.2Q380 144.7 379.3 144.9Q378.6 145.1 377.7 145.1ZM387.8 145.2Q386.6 145.2 385.7 144.8Q384.9 144.4 384.4 143.7Q383.9 143.1 383.8 142.1H385.2Q385.3 142.8 385.7 143.2Q386 143.6 386.6 143.8Q387.1 143.9 387.8 143.9Q388.5 143.9 389.1 143.7Q389.7 143.5 390 143Q390.4 142.6 390.4 142Q390.4 141.5 390.1 141.1Q389.8 140.8 389.3 140.6Q388.8 140.4 388.2 140.2L386.9 139.9Q385.6 139.5 384.8 138.8Q384.1 138.1 384.1 137Q384.1 136.1 384.6 135.4Q385.1 134.7 386 134.3Q386.8 133.9 387.9 133.9Q388.9 133.9 389.8 134.3Q390.6 134.7 391.1 135.4Q391.6 136 391.6 136.8H390.2Q390.1 136 389.5 135.6Q388.8 135.2 387.8 135.2Q387.1 135.2 386.6 135.4Q386.1 135.6 385.8 136Q385.5 136.4 385.5 136.9Q385.5 137.5 385.8 137.9Q386.2 138.2 386.7 138.4Q387.2 138.6 387.5 138.7L388.6 139Q389.1 139.1 389.6 139.3Q390.1 139.5 390.6 139.9Q391.1 140.2 391.4 140.7Q391.7 141.3 391.7 142Q391.7 142.9 391.3 143.6Q390.8 144.4 389.9 144.8Q389 145.2 387.8 145.2ZM393.9 145V134.1H397.6Q398.9 134.1 399.7 134.6Q400.6 135 401 135.8Q401.4 136.6 401.4 137.6Q401.4 138.5 401 139.3Q400.6 140.1 399.7 140.6Q398.9 141.1 397.6 141.1H395V139.8H397.6Q398.4 139.8 399 139.5Q399.5 139.2 399.7 138.7Q400 138.2 400 137.6Q400 136.9 399.7 136.4Q399.5 135.9 399 135.6Q398.4 135.3 397.6 135.3H395.3V145ZM404.3 145.1Q403.9 145.1 403.6 144.8Q403.3 144.5 403.3 144.1Q403.3 143.7 403.6 143.4Q403.9 143.1 404.3 143.1Q404.7 143.1 405 143.4Q405.3 143.7 405.3 144.1Q405.3 144.5 405 144.8Q404.7 145.1 404.3 145.1Z"/>
<line x1="622.0" y1="109.5" x2="649.0" y2="109.5" stroke="#6366f1" stroke-width="2"/>
<path d="M658.0 109.5 L648.0 104.5 L648.0 114.5 Z" fill="#6366f1"/>
<rect x="664.0" y="40" width="264.0" height="139" rx="16" fill="#ffffff" fill-opacity="0.92" stroke="#e4e4e7" stroke-width="1.2"/>
<rect x="684.0" y="60" width="22" height="2" fill="#6366f1"/>
<path fill="#0a0a0b" d="M689.4 96.2Q687.8 96.2 686.7 95.7Q685.7 95.1 685.1 94.1Q684.6 93.1 684.6 91.9V91.4H686.9V91.8Q686.9 92.9 687.5 93.5Q688.1 94.1 689.4 94.1Q690.4 94.1 690.9 93.7Q691.4 93.2 691.4 92.6Q691.4 92.2 691.2 91.9Q691 91.6 690.5 91.3Q690.1 91.1 689.1 90.9Q687.9 90.7 687 90.3Q686.1 89.9 685.6 89.2Q685 88.5 685 87.4V87.3Q685 86.3 685.5 85.5Q686 84.7 687 84.3Q687.9 83.9 689.1 83.9Q690.5 83.9 691.5 84.4Q692.5 84.9 693 85.7Q693.5 86.6 693.5 87.5V88.1H691.2V87.7Q691.2 87 690.7 86.5Q690.1 86 689.1 86Q688.3 86 687.8 86.3Q687.3 86.7 687.3 87.3Q687.3 87.9 687.8 88.2Q688.4 88.6 689.8 88.9Q691.7 89.2 692.7 90Q693.7 90.8 693.7 92.4V92.6Q693.7 94.2 692.5 95.2Q691.4 96.2 689.4 96.2ZM699.9 96.2Q697.8 96.2 696.7 95.1Q695.6 93.9 695.6 91.9V84.1H697.9V91.9Q697.9 92.9 698.4 93.5Q698.9 94.1 699.9 94.1Q701 94.1 701.5 93.5Q701.9 92.9 701.9 91.9V84.1H704.2V91.9Q704.2 93.9 703.1 95.1Q702 96.2 699.9 96.2ZM706.6 96V84.1H711.3Q712.5 84.1 713.3 84.6Q714.1 85.1 714.5 85.9Q714.9 86.7 714.9 87.6V88Q714.9 88.8 714.5 89.7Q714.1 90.5 713.3 91Q712.5 91.5 711.3 91.5H708.9V96ZM708.9 89.4H711.1Q711.8 89.4 712.3 89Q712.7 88.6 712.7 87.9V87.7Q712.7 87.1 712.3 86.7Q711.8 86.2 711.1 86.2H708.9ZM716.4 96 719.2 84.1H723.4L726.3 96H723.9L723.3 93.5H719.3L718.7 96ZM719.8 91.3H722.8L721.5 85.2H721.2ZM727.6 96V93.9H728.7V86.2H727.6V84.1H732.8Q734.5 84.1 735.4 85Q736.3 85.9 736.3 87.2V87.4Q736.3 88.4 735.8 89Q735.2 89.6 734.3 89.9V90.2Q735.2 90.4 735.8 91Q736.3 91.7 736.3 92.7V92.9Q736.3 94.2 735.4 95.1Q734.5 96 732.8 96ZM731 89H732.6Q733.3 89 733.8 88.7Q734.2 88.3 734.2 87.7V87.6Q734.2 86.9 733.8 86.5Q733.3 86.2 732.6 86.2H731ZM731 93.9H732.6Q733.3 93.9 733.8 93.5Q734.2 93.2 734.2 92.5V92.4Q734.2 91.7 733.8 91.4Q733.3 91.1 732.6 91.1H731ZM737.8 96 740.6 84.1H744.8L747.7 96H745.3L744.7 93.5H740.7L740.1 96ZM741.2 91.3H744.3L742.9 85.2H742.6ZM753.6 96.2Q752 96.2 751 95.7Q749.9 95.1 749.4 94.1Q748.8 93.1 748.8 91.9V91.4H751.1V91.8Q751.1 92.9 751.7 93.5Q752.3 94.1 753.6 94.1Q754.6 94.1 755.1 93.7Q755.6 93.2 755.6 92.6Q755.6 92.2 755.4 91.9Q755.3 91.6 754.8 91.3Q754.3 91.1 753.4 90.9Q752.2 90.7 751.2 90.3Q750.3 89.9 749.8 89.2Q749.2 88.5 749.2 87.4V87.3Q749.2 86.3 749.8 85.5Q750.3 84.7 751.2 84.3Q752.1 83.9 753.4 83.9Q754.8 83.9 755.7 84.4Q756.7 84.9 757.2 85.7Q757.7 86.6 757.7 87.5V88.1H755.5V87.7Q755.5 87 754.9 86.5Q754.4 86 753.4 86Q752.5 86 752 86.3Q751.5 86.7 751.5 87.3Q751.5 87.9 752.1 88.2Q752.6 88.6 754.1 88.9Q755.9 89.2 756.9 90Q757.9 90.8 757.9 92.4V92.6Q757.9 94.2 756.8 95.2Q755.6 96.2 753.6 96.2ZM760.3 96V84.1H767.8V86.2H762.6V89H767.6V91.1H762.6V93.9H768V96Z"/>
<path fill="#52525b" d="M685.3 123V112.1H689.1Q690.3 112.1 691.2 112.6Q692 113 692.4 113.8Q692.8 114.6 692.8 115.6Q692.8 116.5 692.4 117.3Q692 118.1 691.2 118.6Q690.3 119.1 689.1 119.1H686.4V117.8H689Q689.9 117.8 690.4 117.5Q690.9 117.2 691.2 116.7Q691.4 116.2 691.4 115.6Q691.4 114.9 691.2 114.4Q690.9 113.9 690.4 113.6Q689.9 113.3 689 113.3H686.7V123ZM698.1 123.2Q697 123.2 696.1 122.6Q695.3 122.1 694.8 121.2Q694.3 120.2 694.3 119Q694.3 117.7 694.8 116.7Q695.3 115.8 696.1 115.2Q697 114.7 698.1 114.7Q699.2 114.7 700 115.2Q700.9 115.8 701.3 116.7Q701.8 117.7 701.8 119Q701.8 120.2 701.3 121.2Q700.9 122.1 700 122.6Q699.2 123.2 698.1 123.2ZM698.1 122Q698.9 122 699.4 121.6Q700 121.1 700.2 120.5Q700.5 119.8 700.5 119Q700.5 118.1 700.2 117.4Q700 116.7 699.4 116.3Q698.9 115.9 698.1 115.9Q697.2 115.9 696.7 116.3Q696.2 116.7 695.9 117.4Q695.7 118.1 695.7 119Q695.7 119.8 695.9 120.5Q696.2 121.1 696.7 121.6Q697.2 122 698.1 122ZM706.5 123.2Q705.7 123.2 705 122.9Q704.4 122.7 703.9 122.2Q703.5 121.7 703.4 121L704.6 120.7Q704.8 121.4 705.3 121.7Q705.8 122 706.5 122Q707.4 122 707.9 121.7Q708.4 121.3 708.4 120.8Q708.4 120.4 708.1 120.1Q707.8 119.8 707.2 119.7L705.8 119.3Q704.7 119.1 704.2 118.5Q703.6 118 703.6 117.1Q703.6 116.4 704 115.9Q704.4 115.3 705.1 115Q705.8 114.7 706.6 114.7Q707.5 114.7 708.1 115Q708.7 115.2 709 115.7Q709.4 116.1 709.6 116.7L708.4 117Q708.2 116.5 707.8 116.2Q707.4 115.8 706.7 115.8Q705.9 115.8 705.4 116.2Q704.9 116.5 704.9 117Q704.9 117.5 705.3 117.7Q705.6 118 706.3 118.2L707.6 118.5Q708.7 118.7 709.2 119.3Q709.7 119.9 709.7 120.7Q709.7 121.4 709.3 122Q708.9 122.5 708.2 122.9Q707.5 123.2 706.5 123.2ZM714.9 114.8V115.9H710.6V114.8ZM711.9 112.9H713.2V120.9Q713.2 121.4 713.4 121.7Q713.6 121.9 714.2 121.9Q714.3 121.9 714.5 121.9Q714.7 121.9 714.8 121.8L715.1 123Q714.9 123 714.6 123.1Q714.4 123.1 714.1 123.1Q713.1 123.1 712.5 122.5Q711.9 122 711.9 121ZM719.9 126.2Q719 126.2 718.3 126Q717.6 125.8 717.2 125.4Q716.8 125 716.5 124.6L717.6 123.9Q717.8 124.1 718 124.4Q718.3 124.7 718.7 124.9Q719.2 125.1 719.9 125.1Q720.9 125.1 721.5 124.6Q722.1 124.1 722.1 123.1V121.5H722Q721.9 121.7 721.6 122.1Q721.4 122.4 720.9 122.6Q720.4 122.9 719.6 122.9Q718.6 122.9 717.9 122.4Q717.1 121.9 716.6 121Q716.2 120.2 716.2 118.9Q716.2 117.6 716.6 116.7Q717.1 115.7 717.8 115.2Q718.6 114.7 719.6 114.7Q720.4 114.7 720.9 115Q721.4 115.2 721.6 115.6Q721.9 115.9 722 116.1H722.2V114.8H723.4V123.2Q723.4 124.3 723 124.9Q722.5 125.6 721.7 125.9Q720.9 126.2 719.9 126.2ZM719.8 121.7Q720.6 121.7 721.1 121.4Q721.6 121 721.9 120.4Q722.1 119.7 722.1 118.8Q722.1 118 721.9 117.3Q721.6 116.6 721.1 116.3Q720.6 115.9 719.8 115.9Q719.1 115.9 718.5 116.3Q718 116.7 717.8 117.4Q717.5 118 717.5 118.8Q717.5 119.7 717.8 120.3Q718 121 718.5 121.3Q719.1 121.7 719.8 121.7ZM725.8 123V114.8H727V116.1H727.1Q727.3 115.4 727.9 115.1Q728.5 114.7 729.2 114.7Q729.4 114.7 729.6 114.7Q729.8 114.7 729.9 114.7V116Q729.8 116 729.6 116Q729.4 116 729.1 116Q728.5 116 728.1 116.2Q727.6 116.5 727.3 116.9Q727.1 117.3 727.1 117.9V123ZM734.8 123.2Q733.7 123.2 732.8 122.6Q731.9 122.1 731.5 121.2Q731 120.2 731 119Q731 117.7 731.5 116.8Q731.9 115.8 732.7 115.3Q733.6 114.7 734.7 114.7Q735.3 114.7 736 114.9Q736.6 115.1 737.1 115.6Q737.6 116.1 738 116.9Q738.3 117.7 738.3 118.8V119.4H731.9V118.2H737.5L736.9 118.6Q736.9 117.8 736.7 117.2Q736.4 116.6 735.9 116.2Q735.4 115.9 734.7 115.9Q734 115.9 733.4 116.2Q732.9 116.6 732.6 117.2Q732.3 117.8 732.3 118.4V119.2Q732.3 120.1 732.7 120.7Q733 121.4 733.5 121.7Q734.1 122 734.9 122Q735.3 122 735.7 121.9Q736.1 121.7 736.4 121.4Q736.7 121.2 736.9 120.7L738.1 121.1Q737.9 121.7 737.5 122.2Q737 122.6 736.4 122.9Q735.7 123.2 734.8 123.2ZM742.9 123.2Q742.1 123.2 741.4 122.9Q740.8 122.7 740.4 122.2Q739.9 121.7 739.8 121L741 120.7Q741.2 121.4 741.7 121.7Q742.2 122 742.9 122Q743.8 122 744.3 121.7Q744.8 121.3 744.8 120.8Q744.8 120.4 744.5 120.1Q744.2 119.8 743.6 119.7L742.2 119.3Q741.1 119.1 740.6 118.5Q740 118 740 117.1Q740 116.4 740.4 115.9Q740.8 115.3 741.5 115Q742.2 114.7 743.1 114.7Q743.9 114.7 744.5 115Q745.1 115.2 745.5 115.7Q745.8 116.1 746 116.7L744.8 117Q744.6 116.5 744.3 116.2Q743.9 115.8 743.1 115.8Q742.3 115.8 741.9 116.2Q741.4 116.5 741.4 117Q741.4 117.5 741.7 117.7Q742 118 742.7 118.2L744 118.5Q745.1 118.7 745.6 119.3Q746.2 119.9 746.2 120.7Q746.2 121.4 745.8 122Q745.3 122.5 744.6 122.9Q743.9 123.2 742.9 123.2ZM747.8 125.6 748.5 121.5H750L748.9 125.6ZM756.8 123V112.1H760.5Q761.8 112.1 762.6 112.5Q763.4 113 763.8 113.7Q764.2 114.5 764.2 115.5Q764.2 116.4 763.8 117.2Q763.4 117.9 762.6 118.3Q761.8 118.8 760.5 118.8H757.5V117.5H760.4Q761.3 117.5 761.8 117.3Q762.4 117 762.6 116.6Q762.8 116.1 762.8 115.5Q762.8 114.8 762.6 114.3Q762.4 113.8 761.8 113.6Q761.3 113.3 760.4 113.3H758.2V123ZM763 123 760.4 118.1H762L764.6 123ZM766.4 123V112.1H767.8V121.8H772.9V123ZM778.4 123.2Q777.2 123.2 776.3 122.8Q775.5 122.4 775 121.7Q774.5 121.1 774.4 120.1H775.9Q775.9 120.8 776.3 121.2Q776.6 121.6 777.2 121.8Q777.8 121.9 778.4 121.9Q779.1 121.9 779.7 121.7Q780.3 121.5 780.7 121Q781 120.6 781 120Q781 119.5 780.7 119.1Q780.4 118.8 779.9 118.6Q779.4 118.4 778.8 118.2L777.5 117.9Q776.2 117.5 775.5 116.8Q774.7 116.1 774.7 115Q774.7 114.1 775.2 113.4Q775.7 112.7 776.6 112.3Q777.4 111.9 778.5 111.9Q779.6 111.9 780.4 112.3Q781.2 112.7 781.7 113.4Q782.2 114 782.2 114.8H780.8Q780.8 114 780.1 113.6Q779.4 113.2 778.4 113.2Q777.7 113.2 777.2 113.4Q776.7 113.6 776.4 114Q776.1 114.4 776.1 114.9Q776.1 115.5 776.4 115.9Q776.8 116.2 777.3 116.4Q777.8 116.6 778.2 116.7L779.3 117Q779.7 117.1 780.2 117.3Q780.8 117.5 781.3 117.9Q781.7 118.2 782 118.7Q782.4 119.3 782.4 120Q782.4 120.9 781.9 121.6Q781.4 122.4 780.5 122.8Q779.7 123.2 778.4 123.2ZM784.1 125.6 784.8 121.5H786.3L785.2 125.6ZM792.9 123V114.8H794.2L794.2 116.6H794.1Q794.3 116 794.6 115.5Q795 115.1 795.5 114.9Q796 114.7 796.5 114.7Q797.4 114.7 797.9 115.2Q798.5 115.8 798.6 116.7H798.5Q798.6 116 799 115.6Q799.4 115.1 799.9 114.9Q800.5 114.7 801.2 114.7Q801.9 114.7 802.4 115Q803 115.3 803.4 115.9Q803.7 116.5 803.7 117.5V123H802.4V117.5Q802.4 116.6 801.9 116.2Q801.4 115.9 800.8 115.9Q800.2 115.9 799.8 116.1Q799.4 116.3 799.2 116.7Q799 117.1 799 117.7V123H797.7V117.4Q797.7 116.7 797.2 116.3Q796.7 115.9 796.1 115.9Q795.6 115.9 795.2 116.1Q794.7 116.3 794.5 116.8Q794.2 117.2 794.2 117.8V123ZM808.3 123.2Q807.6 123.2 806.9 122.9Q806.3 122.6 805.9 122Q805.5 121.5 805.5 120.7Q805.5 120 805.8 119.5Q806.1 119.1 806.6 118.8Q807 118.6 807.6 118.5Q808.2 118.3 808.7 118.3Q809.5 118.2 809.9 118.1Q810.4 118.1 810.6 117.9Q810.8 117.8 810.8 117.5V117.5Q810.8 117 810.6 116.6Q810.5 116.2 810.1 116.1Q809.7 115.9 809.1 115.9Q808.5 115.9 808.1 116Q807.7 116.2 807.4 116.5Q807.2 116.8 807 117.1L805.8 116.6Q806.1 115.9 806.6 115.5Q807.2 115.1 807.8 114.9Q808.5 114.7 809.1 114.7Q809.5 114.7 810 114.8Q810.5 114.9 811 115.2Q811.5 115.5 811.8 116.1Q812.2 116.6 812.2 117.6V123H810.9V121.9H810.8Q810.6 122.2 810.3 122.5Q810 122.8 809.5 123Q809 123.2 808.3 123.2ZM808.6 122Q809.3 122 809.8 121.7Q810.3 121.5 810.6 121Q810.8 120.5 810.8 120V118.9Q810.8 119 810.5 119.1Q810.2 119.2 809.9 119.2Q809.5 119.3 809.2 119.3Q808.9 119.4 808.7 119.4Q808.2 119.4 807.8 119.6Q807.4 119.7 807.1 120Q806.9 120.3 806.9 120.7Q806.9 121.2 807.1 121.4Q807.3 121.7 807.7 121.9Q808.1 122 808.6 122ZM817.8 126.2Q816.9 126.2 816.2 126Q815.6 125.8 815.1 125.4Q814.7 125 814.4 124.6L815.5 123.9Q815.7 124.1 815.9 124.4Q816.2 124.7 816.6 124.9Q817.1 125.1 817.8 125.1Q818.8 125.1 819.4 124.6Q820 124.1 820 123.1V121.5H819.9Q819.8 121.7 819.5 122.1Q819.3 122.4 818.8 122.6Q818.3 122.9 817.5 122.9Q816.5 122.9 815.8 122.4Q815 121.9 814.5 121Q814.1 120.2 814.1 118.9Q814.1 117.6 814.5 116.7Q815 115.7 815.8 115.2Q816.5 114.7 817.6 114.7Q818.3 114.7 818.8 115Q819.3 115.2 819.5 115.6Q819.8 115.9 819.9 116.1H820.1V114.8H821.4V123.2Q821.4 124.3 820.9 124.9Q820.4 125.6 819.6 125.9Q818.8 126.2 817.8 126.2ZM817.7 121.7Q818.5 121.7 819 121.4Q819.5 121 819.8 120.4Q820 119.7 820 118.8Q820 118 819.8 117.3Q819.5 116.6 819 116.3Q818.5 115.9 817.7 115.9Q817 115.9 816.5 116.3Q815.9 116.7 815.7 117.4Q815.4 118 815.4 118.8Q815.4 119.7 815.7 120.3Q815.9 121 816.5 121.3Q817 121.7 817.7 121.7ZM823.7 123V114.8H825V123ZM824.3 113.5Q824 113.5 823.7 113.2Q823.4 113 823.4 112.6Q823.4 112.2 823.7 112Q824 111.7 824.3 111.7Q824.7 111.7 825 112Q825.3 112.2 825.3 112.6Q825.3 113 825 113.2Q824.7 113.5 824.3 113.5ZM830.6 123.2Q829.5 123.2 828.7 122.6Q827.8 122.1 827.4 121.2Q826.9 120.2 826.9 119Q826.9 117.7 827.4 116.7Q827.8 115.8 828.7 115.2Q829.5 114.7 830.6 114.7Q831.2 114.7 831.8 114.9Q832.3 115 832.7 115.3Q833.2 115.6 833.5 116Q833.8 116.4 833.9 117L832.7 117.3Q832.6 117 832.4 116.8Q832.2 116.5 832 116.3Q831.7 116.1 831.4 116Q831 115.9 830.6 115.9Q829.8 115.9 829.3 116.3Q828.8 116.7 828.5 117.4Q828.2 118.1 828.2 119Q828.2 119.8 828.5 120.5Q828.8 121.1 829.3 121.6Q829.8 122 830.6 122Q831 122 831.4 121.9Q831.7 121.8 832 121.6Q832.3 121.4 832.4 121.1Q832.6 120.8 832.7 120.5L834 120.8Q833.8 121.4 833.5 121.8Q833.2 122.3 832.7 122.6Q832.3 122.9 831.8 123Q831.2 123.2 830.6 123.2ZM840.6 117.7V118.9H835.8V117.7ZM844.1 112.1V123H842.8V112.1ZM846.4 123V114.8H847.7V123ZM847.1 113.5Q846.7 113.5 846.4 113.2Q846.2 113 846.2 112.6Q846.2 112.2 846.4 112Q846.7 111.7 847.1 111.7Q847.4 111.7 847.7 112Q848 112.2 848 112.6Q848 113 847.7 113.2Q847.4 113.5 847.1 113.5ZM851.4 118.1V123H850V114.8H851.3L851.3 116.8H851.1Q851.5 115.7 852.2 115.2Q852.9 114.7 853.8 114.7Q854.6 114.7 855.3 115Q855.9 115.4 856.2 116.1Q856.6 116.8 856.6 117.8V123H855.3V117.9Q855.3 117 854.8 116.4Q854.3 115.9 853.4 115.9Q852.8 115.9 852.4 116.2Q851.9 116.4 851.6 116.9Q851.4 117.4 851.4 118.1ZM860.1 120.1V118.4H860.4L863.9 114.8H865.5L861.7 118.7H861.6ZM858.9 123V112.1H860.2V123ZM864.1 123 860.9 119 861.9 118.1 865.8 123ZM873.6 123.2Q872.9 123.2 872.2 122.9Q871.6 122.6 871.2 122Q870.8 121.5 870.8 120.7Q870.8 120 871.1 119.5Q871.4 119.1 871.9 118.8Q872.3 118.6 872.9 118.5Q873.5 118.3 874 118.3Q874.8 118.2 875.2 118.1Q875.7 118.1 875.9 117.9Q876.1 117.8 876.1 117.5V117.5Q876.1 117 875.9 116.6Q875.8 116.2 875.4 116.1Q875 115.9 874.4 115.9Q873.8 115.9 873.4 116Q873 116.2 872.7 116.5Q872.5 116.8 872.3 117.1L871.1 116.6Q871.4 115.9 871.9 115.5Q872.5 115.1 873.1 114.9Q873.8 114.7 874.4 114.7Q874.8 114.7 875.3 114.8Q875.8 114.9 876.3 115.2Q876.8 115.5 877.1 116.1Q877.5 116.6 877.5 117.6V123H876.2V121.9H876.1Q875.9 122.2 875.6 122.5Q875.3 122.8 874.8 123Q874.3 123.2 873.6 123.2ZM873.9 122Q874.6 122 875.1 121.7Q875.6 121.5 875.9 121Q876.1 120.5 876.1 120V118.9Q876.1 119 875.8 119.1Q875.5 119.2 875.2 119.2Q874.8 119.3 874.5 119.3Q874.2 119.4 874 119.4Q873.5 119.4 873.1 119.6Q872.7 119.7 872.4 120Q872.2 120.3 872.2 120.7Q872.2 121.2 872.4 121.4Q872.6 121.7 873 121.9Q873.4 122 873.9 122ZM882.5 123.1Q881.7 123.1 881.1 122.8Q880.5 122.4 880.1 121.7Q879.8 121 879.8 120V114.8H881.1V119.9Q881.1 120.8 881.6 121.4Q882.1 121.9 882.9 121.9Q883.5 121.9 884 121.7Q884.5 121.4 884.7 120.9Q885 120.4 885 119.7V114.8H886.3V123H885V121H885.2Q884.8 122.2 884.1 122.6Q883.4 123.1 882.5 123.1ZM891.9 114.8V115.9H887.6V114.8ZM888.9 112.9H890.2V120.9Q890.2 121.4 890.4 121.7Q890.6 121.9 891.1 121.9Q891.3 121.9 891.5 121.9Q891.7 121.9 891.8 121.8L892.1 123Q891.9 123 891.6 123.1Q891.4 123.1 891.1 123.1Q890 123.1 889.5 122.5Q888.9 122 888.9 121ZM894.9 118.1V123H893.5V112.1H894.9V116.8H894.6Q895 115.7 895.7 115.2Q896.4 114.7 897.3 114.7Q898.2 114.7 898.8 115Q899.4 115.4 899.8 116.1Q900.1 116.8 900.1 117.8V123H898.8V117.9Q898.8 117 898.3 116.4Q897.8 115.9 896.9 115.9Q896.3 115.9 895.9 116.2Q895.4 116.4 895.1 116.9Q894.9 117.4 894.9 118.1ZM903.4 123.1Q903 123.1 902.7 122.8Q902.4 122.5 902.4 122.1Q902.4 121.7 902.7 121.4Q903 121.1 903.4 121.1Q903.8 121.1 904.1 121.4Q904.4 121.7 904.4 122.1Q904.4 122.5 904.1 122.8Q903.8 123.1 903.4 123.1Z"/>
<line x1="934.0" y1="109.5" x2="961.0" y2="109.5" stroke="#6366f1" stroke-width="2"/>
<path d="M970.0 109.5 L960.0 104.5 L960.0 114.5 Z" fill="#6366f1"/>
<rect x="976.0" y="40" width="264.0" height="139" rx="16" fill="#ffffff" fill-opacity="0.92" stroke="#e4e4e7" stroke-width="1.2"/>
<rect x="996.0" y="60" width="22" height="2" fill="#6366f1"/>
<path fill="#0a0a0b" d="M999.1 96 996.4 84.1H998.7L1001 94.9H1001.4L1003.7 84.1H1006L1003.3 96ZM1008.1 96V84.1H1015.6V86.2H1010.3V89H1015.4V91.1H1010.3V93.9H1015.8V96ZM1018.6 96V84.1H1023.2Q1024.4 84.1 1025.3 84.5Q1026.1 85 1026.5 85.7Q1026.9 86.5 1026.9 87.4V87.8Q1026.9 88.5 1026.5 89.2Q1026.1 89.8 1025.3 90.1V90.4Q1025.9 90.5 1026.3 90.9Q1026.6 91.3 1026.6 91.9V96H1024.4V92.4Q1024.4 92 1024.2 91.8Q1024 91.5 1023.5 91.5H1020.9V96ZM1020.9 89.4H1023Q1023.9 89.4 1024.3 89Q1024.7 88.6 1024.7 87.9V87.7Q1024.7 87.1 1024.3 86.7Q1023.9 86.2 1023 86.2H1020.9ZM1033.3 96.2Q1031.3 96.2 1030.1 95Q1028.9 93.7 1028.9 91.4V88.7Q1028.9 86.4 1030.1 85.1Q1031.3 83.9 1033.3 83.9Q1035.5 83.9 1036.6 85.1Q1037.7 86.2 1037.7 88.3V88.6H1035.5V88.3Q1035.5 87.7 1035.3 87.2Q1035.1 86.6 1034.6 86.3Q1034.2 85.9 1033.3 85.9Q1032.6 85.9 1032.1 86.3Q1031.6 86.6 1031.4 87.2Q1031.2 87.8 1031.2 88.6V91.5Q1031.2 92.7 1031.7 93.4Q1032.2 94.2 1033.3 94.2Q1034.2 94.2 1034.7 93.9Q1035.1 93.5 1035.3 93Q1035.5 92.4 1035.5 91.8V91.5H1037.7V91.8Q1037.7 93.9 1036.6 95.1Q1035.5 96.2 1033.3 96.2ZM1040.2 96V84.1H1047.7V86.2H1042.5V89H1047.5V91.1H1042.5V93.9H1047.9V96ZM1050.9 96V84.1H1053.2V93.9H1058.6V96Z"/>
<path fill="#52525b" d="M997.3 123V112.1H1004V113.3H998.7V116.9H1003.6V118.1H998.7V121.8H1004V123ZM1008.5 123 1005.4 114.8H1006.9L1008.6 119.7Q1008.9 120.4 1009.1 121.2Q1009.3 121.9 1009.5 122.6H1009Q1009.2 121.9 1009.4 121.2Q1009.6 120.4 1009.9 119.7L1011.6 114.8H1013.1L1009.9 123ZM1018 123.2Q1016.9 123.2 1016 122.6Q1015.1 122.1 1014.7 121.2Q1014.2 120.2 1014.2 119Q1014.2 117.7 1014.7 116.8Q1015.1 115.8 1015.9 115.3Q1016.8 114.7 1017.9 114.7Q1018.5 114.7 1019.2 114.9Q1019.8 115.1 1020.3 115.6Q1020.8 116.1 1021.2 116.9Q1021.5 117.7 1021.5 118.8V119.4H1015.1V118.2H1020.7L1020.1 118.6Q1020.1 117.8 1019.9 117.2Q1019.6 116.6 1019.1 116.2Q1018.6 115.9 1017.9 115.9Q1017.2 115.9 1016.6 116.2Q1016.1 116.6 1015.8 117.2Q1015.5 117.8 1015.5 118.4V119.2Q1015.5 120.1 1015.9 120.7Q1016.2 121.4 1016.7 121.7Q1017.3 122 1018.1 122Q1018.5 122 1018.9 121.9Q1019.3 121.7 1019.6 121.4Q1019.9 121.2 1020.1 120.7L1021.3 121.1Q1021.1 121.7 1020.7 122.2Q1020.2 122.6 1019.6 122.9Q1018.9 123.2 1018 123.2ZM1023.3 123V114.8H1024.6V116.1H1024.7Q1024.9 115.4 1025.5 115.1Q1026.1 114.7 1026.8 114.7Q1027 114.7 1027.2 114.7Q1027.4 114.7 1027.5 114.7V116Q1027.4 116 1027.2 116Q1027 116 1026.7 116Q1026.1 116 1025.7 116.2Q1025.2 116.5 1024.9 116.9Q1024.7 117.3 1024.7 117.9V123ZM1028.9 126 1029.2 124.8 1029.3 124.9Q1029.7 125 1030.1 124.9Q1030.4 124.9 1030.7 124.6Q1030.9 124.3 1031.1 123.7L1031.4 123L1028.2 114.8H1029.7L1031.4 119.7Q1031.7 120.4 1031.9 121.2Q1032.1 121.9 1032.3 122.6H1031.8Q1032 121.9 1032.2 121.2Q1032.4 120.4 1032.7 119.7L1034.4 114.8H1035.9L1032.3 124.2Q1032 124.9 1031.7 125.3Q1031.3 125.7 1030.9 125.9Q1030.4 126.1 1029.8 126.1Q1029.5 126.1 1029.2 126.1Q1029 126 1028.9 126ZM1041.6 126.1V114.8H1042.9V116.1H1043.1Q1043.2 115.9 1043.5 115.6Q1043.7 115.2 1044.2 115Q1044.6 114.7 1045.4 114.7Q1046.5 114.7 1047.2 115.2Q1048 115.7 1048.5 116.7Q1048.9 117.6 1048.9 118.9Q1048.9 120.2 1048.5 121.2Q1048 122.1 1047.3 122.7Q1046.5 123.2 1045.4 123.2Q1044.7 123.2 1044.2 122.9Q1043.7 122.6 1043.5 122.3Q1043.2 122 1043.1 121.7H1043V126.1ZM1045.2 122Q1046 122 1046.5 121.6Q1047 121.2 1047.3 120.5Q1047.6 119.8 1047.6 118.9Q1047.6 118.1 1047.3 117.4Q1047.1 116.7 1046.5 116.3Q1046 115.9 1045.2 115.9Q1044.5 115.9 1044 116.3Q1043.5 116.6 1043.2 117.3Q1042.9 118 1042.9 118.9Q1042.9 119.8 1043.2 120.5Q1043.5 121.2 1044 121.6Q1044.5 122 1045.2 122ZM1053.6 123.1Q1052.8 123.1 1052.2 122.8Q1051.5 122.4 1051.2 121.7Q1050.8 121 1050.8 120V114.8H1052.1V119.9Q1052.1 120.8 1052.6 121.4Q1053.1 121.9 1054 121.9Q1054.6 121.9 1055.1 121.7Q1055.5 121.4 1055.8 120.9Q1056.1 120.4 1056.1 119.7V114.8H1057.4V123H1056.1V121H1056.3Q1055.9 122.2 1055.2 122.6Q1054.5 123.1 1053.6 123.1ZM1062.5 123.2Q1061.6 123.2 1061 122.9Q1060.3 122.7 1059.9 122.2Q1059.5 121.7 1059.3 121L1060.6 120.7Q1060.8 121.4 1061.2 121.7Q1061.7 122 1062.5 122Q1063.3 122 1063.8 121.7Q1064.3 121.3 1064.3 120.8Q1064.3 120.4 1064 120.1Q1063.7 119.8 1063.1 119.7L1061.8 119.3Q1060.7 119.1 1060.1 118.5Q1059.6 118 1059.6 117.1Q1059.6 116.4 1060 115.9Q1060.4 115.3 1061.1 115Q1061.7 114.7 1062.6 114.7Q1063.5 114.7 1064 115Q1064.6 115.2 1065 115.7Q1065.4 116.1 1065.6 116.7L1064.4 117Q1064.2 116.5 1063.8 116.2Q1063.4 115.8 1062.6 115.8Q1061.9 115.8 1061.4 116.2Q1060.9 116.5 1060.9 117Q1060.9 117.5 1061.2 117.7Q1061.6 118 1062.3 118.2L1063.5 118.5Q1064.6 118.7 1065.2 119.3Q1065.7 119.9 1065.7 120.7Q1065.7 121.4 1065.3 122Q1064.9 122.5 1064.2 122.9Q1063.4 123.2 1062.5 123.2ZM1068.9 118.1V123H1067.6V112.1H1068.9V116.8H1068.7Q1069.1 115.7 1069.8 115.2Q1070.5 114.7 1071.4 114.7Q1072.2 114.7 1072.8 115Q1073.5 115.4 1073.8 116.1Q1074.2 116.8 1074.2 117.8V123H1072.8V117.9Q1072.8 117 1072.4 116.4Q1071.9 115.9 1071 115.9Q1070.4 115.9 1069.9 116.2Q1069.5 116.4 1069.2 116.9Q1068.9 117.4 1068.9 118.1ZM1083.9 114.8V115.9H1079.7V114.8ZM1080.9 112.9H1082.2V120.9Q1082.2 121.4 1082.5 121.7Q1082.7 121.9 1083.2 121.9Q1083.3 121.9 1083.5 121.9Q1083.7 121.9 1083.9 121.8L1084.2 123Q1083.9 123 1083.7 123.1Q1083.4 123.1 1083.2 123.1Q1082.1 123.1 1081.5 122.5Q1080.9 122 1080.9 121ZM1088.9 123.2Q1087.8 123.2 1087 122.6Q1086.2 122.1 1085.7 121.2Q1085.2 120.2 1085.2 119Q1085.2 117.7 1085.7 116.7Q1086.2 115.8 1087 115.2Q1087.8 114.7 1088.9 114.7Q1090.1 114.7 1090.9 115.2Q1091.7 115.8 1092.2 116.7Q1092.7 117.7 1092.7 119Q1092.7 120.2 1092.2 121.2Q1091.7 122.1 1090.9 122.6Q1090.1 123.2 1088.9 123.2ZM1088.9 122Q1089.8 122 1090.3 121.6Q1090.8 121.1 1091.1 120.5Q1091.4 119.8 1091.4 119Q1091.4 118.1 1091.1 117.4Q1090.8 116.7 1090.3 116.3Q1089.8 115.9 1088.9 115.9Q1088.1 115.9 1087.6 116.3Q1087.1 116.7 1086.8 117.4Q1086.6 118.1 1086.6 119Q1086.6 119.8 1086.8 120.5Q1087.1 121.1 1087.6 121.6Q1088.1 122 1088.9 122ZM1098.8 123V114.8H1100.1L1100.1 116.6H1100Q1100.2 116 1100.5 115.5Q1100.9 115.1 1101.4 114.9Q1101.9 114.7 1102.4 114.7Q1103.3 114.7 1103.9 115.2Q1104.4 115.8 1104.6 116.7H1104.4Q1104.5 116 1104.9 115.6Q1105.3 115.1 1105.9 114.9Q1106.4 114.7 1107.1 114.7Q1107.8 114.7 1108.4 115Q1109 115.3 1109.3 115.9Q1109.6 116.5 1109.6 117.5V123H1108.3V117.5Q1108.3 116.6 1107.8 116.2Q1107.3 115.9 1106.7 115.9Q1106.1 115.9 1105.7 116.1Q1105.3 116.3 1105.1 116.7Q1104.9 117.1 1104.9 117.7V123H1103.6V117.4Q1103.6 116.7 1103.1 116.3Q1102.7 115.9 1102 115.9Q1101.5 115.9 1101.1 116.1Q1100.7 116.3 1100.4 116.8Q1100.1 117.2 1100.1 117.8V123ZM1114.3 123.2Q1113.5 123.2 1112.8 122.9Q1112.2 122.6 1111.8 122Q1111.5 121.5 1111.5 120.7Q1111.5 120 1111.7 119.5Q1112 119.1 1112.5 118.8Q1113 118.6 1113.5 118.5Q1114.1 118.3 1114.7 118.3Q1115.4 118.2 1115.8 118.1Q1116.3 118.1 1116.5 117.9Q1116.8 117.8 1116.8 117.5V117.5Q1116.8 117 1116.6 116.6Q1116.4 116.2 1116 116.1Q1115.6 115.9 1115 115.9Q1114.5 115.9 1114 116Q1113.6 116.2 1113.4 116.5Q1113.1 116.8 1113 117.1L1111.7 116.6Q1112 115.9 1112.6 115.5Q1113.1 115.1 1113.7 114.9Q1114.4 114.7 1115 114.7Q1115.4 114.7 1115.9 114.8Q1116.5 114.9 1116.9 115.2Q1117.4 115.5 1117.8 116.1Q1118.1 116.6 1118.1 117.6V123H1116.8V121.9H1116.7Q1116.5 122.2 1116.2 122.5Q1115.9 122.8 1115.4 123Q1115 123.2 1114.3 123.2ZM1114.5 122Q1115.2 122 1115.7 121.7Q1116.2 121.5 1116.5 121Q1116.8 120.5 1116.8 120V118.9Q1116.7 119 1116.4 119.1Q1116.1 119.2 1115.8 119.2Q1115.4 119.3 1115.1 119.3Q1114.8 119.4 1114.6 119.4Q1114.1 119.4 1113.7 119.6Q1113.3 119.7 1113 120Q1112.8 120.3 1112.8 120.7Q1112.8 121.2 1113 121.4Q1113.2 121.7 1113.6 121.9Q1114 122 1114.5 122ZM1120.4 123V114.8H1121.7V123ZM1121.1 113.5Q1120.7 113.5 1120.4 113.2Q1120.1 113 1120.1 112.6Q1120.1 112.2 1120.4 112Q1120.7 111.7 1121.1 111.7Q1121.4 111.7 1121.7 112Q1122 112.2 1122 112.6Q1122 113 1121.7 113.2Q1121.4 113.5 1121.1 113.5ZM1125.3 118.1V123H1124V114.8H1125.3L1125.3 116.8H1125.1Q1125.5 115.7 1126.2 115.2Q1126.9 114.7 1127.8 114.7Q1128.6 114.7 1129.2 115Q1129.9 115.4 1130.2 116.1Q1130.6 116.8 1130.6 117.8V123H1129.2V117.9Q1129.2 117 1128.8 116.4Q1128.3 115.9 1127.4 115.9Q1126.8 115.9 1126.3 116.2Q1125.9 116.4 1125.6 116.9Q1125.3 117.4 1125.3 118.1ZM1140.2 123.2Q1139.2 123.2 1138.4 122.7Q1137.6 122.1 1137.1 121.2Q1136.7 120.2 1136.7 118.9Q1136.7 117.6 1137.1 116.7Q1137.6 115.7 1138.4 115.2Q1139.2 114.7 1140.2 114.7Q1141 114.7 1141.4 115Q1141.9 115.2 1142.2 115.6Q1142.4 115.9 1142.6 116.1H1142.7V112.1H1144V123H1142.7V121.7H1142.6Q1142.4 122 1142.2 122.3Q1141.9 122.6 1141.4 122.9Q1141 123.2 1140.2 123.2ZM1140.4 122Q1141.1 122 1141.6 121.6Q1142.1 121.2 1142.4 120.5Q1142.7 119.8 1142.7 118.9Q1142.7 118 1142.4 117.3Q1142.1 116.6 1141.6 116.3Q1141.1 115.9 1140.4 115.9Q1139.6 115.9 1139.1 116.3Q1138.6 116.7 1138.3 117.4Q1138 118.1 1138 118.9Q1138 119.8 1138.3 120.5Q1138.6 121.2 1139.1 121.6Q1139.6 122 1140.4 122ZM1149.7 123.2Q1148.5 123.2 1147.7 122.6Q1146.8 122.1 1146.4 121.2Q1145.9 120.2 1145.9 119Q1145.9 117.7 1146.3 116.8Q1146.8 115.8 1147.6 115.3Q1148.5 114.7 1149.6 114.7Q1150.2 114.7 1150.9 114.9Q1151.5 115.1 1152 115.6Q1152.5 116.1 1152.8 116.9Q1153.1 117.7 1153.1 118.8V119.4H1146.8V118.2H1152.4L1151.8 118.6Q1151.8 117.8 1151.6 117.2Q1151.3 116.6 1150.8 116.2Q1150.3 115.9 1149.6 115.9Q1148.8 115.9 1148.3 116.2Q1147.8 116.6 1147.5 117.2Q1147.2 117.8 1147.2 118.4V119.2Q1147.2 120.1 1147.5 120.7Q1147.9 121.4 1148.4 121.7Q1149 122 1149.7 122Q1150.2 122 1150.6 121.9Q1151 121.7 1151.3 121.4Q1151.6 121.2 1151.7 120.7L1153 121.1Q1152.8 121.7 1152.4 122.2Q1151.9 122.6 1151.2 122.9Q1150.6 123.2 1149.7 123.2ZM1155 126.1V114.8H1156.3V116.1H1156.5Q1156.6 115.9 1156.8 115.6Q1157.1 115.2 1157.6 115Q1158 114.7 1158.8 114.7Q1159.9 114.7 1160.6 115.2Q1161.4 115.7 1161.9 116.7Q1162.3 117.6 1162.3 118.9Q1162.3 120.2 1161.9 121.2Q1161.4 122.1 1160.6 122.7Q1159.9 123.2 1158.8 123.2Q1158.1 123.2 1157.6 122.9Q1157.1 122.6 1156.8 122.3Q1156.6 122 1156.5 121.7H1156.3V126.1ZM1158.6 122Q1159.4 122 1159.9 121.6Q1160.4 121.2 1160.7 120.5Q1161 119.8 1161 118.9Q1161 118.1 1160.7 117.4Q1160.4 116.7 1159.9 116.3Q1159.4 115.9 1158.6 115.9Q1157.9 115.9 1157.4 116.3Q1156.9 116.6 1156.6 117.3Q1156.3 118 1156.3 118.9Q1156.3 119.8 1156.6 120.5Q1156.9 121.2 1157.4 121.6Q1157.9 122 1158.6 122ZM1165.5 112.1V123H1164.2V112.1ZM1171.2 123.2Q1170.1 123.2 1169.2 122.6Q1168.4 122.1 1167.9 121.2Q1167.5 120.2 1167.5 119Q1167.5 117.7 1167.9 116.7Q1168.4 115.8 1169.2 115.2Q1170.1 114.7 1171.2 114.7Q1172.3 114.7 1173.1 115.2Q1174 115.8 1174.5 116.7Q1174.9 117.7 1174.9 119Q1174.9 120.2 1174.5 121.2Q1174 122.1 1173.1 122.6Q1172.3 123.2 1171.2 123.2ZM1171.2 122Q1172 122 1172.5 121.6Q1173.1 121.1 1173.3 120.5Q1173.6 119.8 1173.6 119Q1173.6 118.1 1173.3 117.4Q1173.1 116.7 1172.5 116.3Q1172 115.9 1171.2 115.9Q1170.4 115.9 1169.8 116.3Q1169.3 116.7 1169 117.4Q1168.8 118.1 1168.8 119Q1168.8 119.8 1169 120.5Q1169.3 121.1 1169.8 121.6Q1170.4 122 1171.2 122ZM1176.7 126 1177 124.8 1177.2 124.9Q1177.6 125 1177.9 124.9Q1178.2 124.9 1178.5 124.6Q1178.8 124.3 1179 123.7L1179.2 123L1176.1 114.8H1177.5L1179.3 119.7Q1179.5 120.4 1179.7 121.2Q1179.9 121.9 1180.1 122.6H1179.7Q1179.9 121.9 1180.1 121.2Q1180.3 120.4 1180.5 119.7L1182.3 114.8H1183.7L1180.1 124.2Q1179.9 124.9 1179.5 125.3Q1179.2 125.7 1178.7 125.9Q1178.3 126.1 1177.7 126.1Q1177.3 126.1 1177.1 126.1Q1176.8 126 1176.7 126ZM1188.1 123.2Q1187.2 123.2 1186.6 122.9Q1185.9 122.7 1185.5 122.2Q1185.1 121.7 1184.9 121L1186.2 120.7Q1186.3 121.4 1186.8 121.7Q1187.3 122 1188 122Q1188.9 122 1189.4 121.7Q1189.9 121.3 1189.9 120.8Q1189.9 120.4 1189.6 120.1Q1189.3 119.8 1188.7 119.7L1187.4 119.3Q1186.2 119.1 1185.7 118.5Q1185.2 118 1185.2 117.1Q1185.2 116.4 1185.6 115.9Q1185.9 115.3 1186.6 115Q1187.3 114.7 1188.2 114.7Q1189 114.7 1189.6 115Q1190.2 115.2 1190.6 115.7Q1190.9 116.1 1191.1 116.7L1189.9 117Q1189.8 116.5 1189.4 116.2Q1189 115.8 1188.2 115.8Q1187.5 115.8 1187 116.2Q1186.5 116.5 1186.5 117Q1186.5 117.5 1186.8 117.7Q1187.1 118 1187.9 118.2L1189.1 118.5Q1190.2 118.7 1190.8 119.3Q1191.3 119.9 1191.3 120.7Q1191.3 121.4 1190.9 122Q1190.5 122.5 1189.7 122.9Q1189 123.2 1188.1 123.2ZM1194.2 123.1Q1193.8 123.1 1193.5 122.8Q1193.2 122.5 1193.2 122.1Q1193.2 121.7 1193.5 121.4Q1193.8 121.1 1194.2 121.1Q1194.6 121.1 1194.9 121.4Q1195.2 121.7 1195.2 122.1Q1195.2 122.5 1194.9 122.8Q1194.6 123.1 1194.2 123.1Z"/>
<path fill="#71717a" d="M40.4 213 44.6 201.4H46.4L50.6 213H49.1L46.6 206.1Q46.4 205.5 46.1 204.5Q45.8 203.5 45.3 202.1H45.6Q45.2 203.6 44.9 204.5Q44.6 205.5 44.4 206.1L42 213ZM42.5 209.8V208.5H48.5V209.8ZM55.7 204.3V205.5H51.2V204.3ZM52.5 202.2H53.9V210.7Q53.9 211.3 54.2 211.6Q54.4 211.9 54.9 211.9Q55.1 211.9 55.3 211.8Q55.5 211.8 55.7 211.8L56 213Q55.7 213 55.5 213.1Q55.2 213.1 54.9 213.1Q53.8 213.1 53.1 212.5Q52.5 211.9 52.5 210.8ZM61.1 213.2Q59.9 213.2 59 212.6Q58.1 212.1 57.6 211Q57.1 210 57.1 208.7Q57.1 207.3 57.6 206.3Q58.1 205.3 59 204.7Q59.9 204.2 61.1 204.2Q62.3 204.2 63.2 204.7Q64.1 205.3 64.6 206.3Q65.1 207.3 65.1 208.7Q65.1 210 64.6 211Q64.1 212.1 63.2 212.6Q62.3 213.2 61.1 213.2ZM61.1 211.9Q61.9 211.9 62.5 211.5Q63.1 211 63.4 210.3Q63.6 209.5 63.6 208.7Q63.6 207.8 63.4 207.1Q63.1 206.3 62.5 205.9Q61.9 205.4 61.1 205.4Q60.2 205.4 59.6 205.9Q59.1 206.3 58.8 207.1Q58.5 207.8 58.5 208.7Q58.5 209.5 58.8 210.3Q59.1 211 59.6 211.5Q60.2 211.9 61.1 211.9ZM67.1 213V204.3H68.5L68.5 206.2H68.4Q68.5 205.5 68.9 205Q69.3 204.6 69.8 204.3Q70.4 204.1 70.9 204.1Q71.9 204.1 72.5 204.7Q73.1 205.3 73.2 206.2H73Q73.2 205.6 73.6 205.1Q74 204.6 74.6 204.4Q75.2 204.1 75.9 204.1Q76.7 204.1 77.3 204.4Q77.9 204.8 78.3 205.4Q78.6 206.1 78.6 207.1V213H77.2V207.1Q77.2 206.2 76.7 205.8Q76.2 205.4 75.5 205.4Q74.9 205.4 74.5 205.6Q74 205.9 73.8 206.3Q73.6 206.7 73.6 207.3V213H72.2V207Q72.2 206.3 71.7 205.8Q71.2 205.4 70.5 205.4Q70 205.4 69.5 205.6Q69.1 205.9 68.8 206.3Q68.5 206.8 68.5 207.5V213ZM81.1 213V204.3H82.5V213ZM81.8 202.8Q81.4 202.8 81.1 202.6Q80.9 202.3 80.9 201.9Q80.9 201.5 81.1 201.2Q81.4 201 81.8 201Q82.2 201 82.5 201.2Q82.8 201.5 82.8 201.9Q82.8 202.3 82.5 202.6Q82.2 202.8 81.8 202.8ZM88.5 213.2Q87.4 213.2 86.5 212.6Q85.6 212.1 85.1 211Q84.6 210 84.6 208.7Q84.6 207.3 85.1 206.3Q85.6 205.3 86.5 204.7Q87.4 204.2 88.5 204.2Q89.2 204.2 89.7 204.3Q90.3 204.5 90.8 204.8Q91.2 205.1 91.6 205.6Q91.9 206 92.1 206.6L90.7 207Q90.6 206.6 90.4 206.3Q90.2 206.1 90 205.8Q89.7 205.6 89.3 205.5Q89 205.4 88.5 205.4Q87.7 205.4 87.1 205.9Q86.5 206.3 86.3 207.1Q86 207.8 86 208.7Q86 209.5 86.3 210.3Q86.5 211 87.1 211.5Q87.7 211.9 88.5 211.9Q89 211.9 89.4 211.8Q89.7 211.7 90 211.5Q90.3 211.3 90.5 211Q90.7 210.7 90.8 210.3L92.1 210.7Q91.9 211.3 91.6 211.7Q91.3 212.2 90.8 212.5Q90.3 212.9 89.8 213Q89.2 213.2 88.5 213.2ZM102.4 213H99.6V211.7H102.3Q103.8 211.7 104.7 211.1Q105.6 210.6 106.1 209.6Q106.6 208.6 106.6 207.2Q106.6 205.8 106.1 204.8Q105.6 203.8 104.7 203.2Q103.8 202.7 102.5 202.7H99.6V201.4H102.6Q104.3 201.4 105.5 202.1Q106.7 202.8 107.3 204.1Q108 205.4 108 207.2Q108 209 107.3 210.3Q106.7 211.6 105.5 212.3Q104.2 213 102.4 213ZM100.3 201.4V213H98.8V201.4ZM113.9 213.2Q112.6 213.2 111.7 212.6Q110.8 212.1 110.3 211.1Q109.8 210 109.8 208.7Q109.8 207.4 110.2 206.3Q110.7 205.3 111.6 204.7Q112.5 204.2 113.7 204.2Q114.4 204.2 115.1 204.4Q115.7 204.6 116.3 205.1Q116.8 205.6 117.2 206.5Q117.5 207.3 117.5 208.5V209.1H110.7V207.9H116.7L116.1 208.4Q116.1 207.5 115.8 206.8Q115.5 206.2 115 205.8Q114.5 205.4 113.7 205.4Q112.9 205.4 112.3 205.8Q111.8 206.2 111.5 206.8Q111.2 207.4 111.2 208.1V208.9Q111.2 209.9 111.5 210.6Q111.9 211.2 112.5 211.6Q113.1 211.9 113.9 211.9Q114.4 211.9 114.8 211.8Q115.2 211.6 115.5 211.3Q115.8 211 116 210.6L117.4 211Q117.1 211.6 116.7 212.1Q116.2 212.6 115.5 212.9Q114.8 213.2 113.9 213.2ZM122.5 213.2Q121.6 213.2 120.9 212.9Q120.2 212.7 119.7 212.1Q119.3 211.6 119.1 210.9L120.5 210.6Q120.6 211.3 121.2 211.6Q121.7 212 122.5 212Q123.4 212 123.9 211.6Q124.5 211.2 124.5 210.6Q124.5 210.2 124.1 209.9Q123.8 209.6 123.2 209.4L121.7 209.1Q120.5 208.8 120 208.2Q119.4 207.6 119.4 206.7Q119.4 206 119.8 205.4Q120.2 204.8 121 204.5Q121.7 204.2 122.6 204.2Q123.5 204.2 124.1 204.4Q124.8 204.7 125.2 205.2Q125.6 205.6 125.8 206.3L124.5 206.6Q124.3 206.1 123.9 205.7Q123.5 205.4 122.6 205.4Q121.8 205.4 121.3 205.7Q120.8 206.1 120.8 206.6Q120.8 207.1 121.2 207.4Q121.5 207.7 122.3 207.9L123.6 208.2Q124.8 208.5 125.4 209.1Q125.9 209.6 125.9 210.5Q125.9 211.3 125.5 211.9Q125.1 212.5 124.3 212.8Q123.5 213.2 122.5 213.2ZM128 213V204.3H129.4V213ZM128.7 202.8Q128.3 202.8 128 202.6Q127.7 202.3 127.7 201.9Q127.7 201.5 128 201.2Q128.3 201 128.7 201Q129.1 201 129.4 201.2Q129.6 201.5 129.6 201.9Q129.6 202.3 129.4 202.6Q129.1 202.8 128.7 202.8ZM135.4 216.5Q134.4 216.5 133.7 216.2Q133 216 132.5 215.6Q132 215.1 131.8 214.7L132.9 213.9Q133.1 214.2 133.4 214.5Q133.7 214.8 134.1 215Q134.6 215.2 135.4 215.2Q136.4 215.2 137.1 214.7Q137.8 214.2 137.8 213.1V211.4H137.6Q137.5 211.6 137.2 212Q136.9 212.3 136.4 212.6Q135.9 212.9 135.1 212.9Q134 212.9 133.2 212.4Q132.4 211.9 131.9 210.9Q131.4 210 131.4 208.6Q131.4 207.2 131.9 206.2Q132.4 205.2 133.2 204.7Q134 204.2 135.1 204.2Q136 204.2 136.5 204.4Q137 204.7 137.2 205.1Q137.5 205.4 137.7 205.7H137.8V204.3H139.2V213.2Q139.2 214.4 138.7 215.1Q138.2 215.8 137.3 216.1Q136.4 216.5 135.4 216.5ZM135.3 211.6Q136.1 211.6 136.7 211.2Q137.2 210.9 137.5 210.2Q137.8 209.5 137.8 208.6Q137.8 207.6 137.5 206.9Q137.2 206.2 136.7 205.8Q136.1 205.4 135.3 205.4Q134.5 205.4 133.9 205.8Q133.4 206.3 133.1 207Q132.8 207.7 132.8 208.6Q132.8 209.5 133.1 210.1Q133.4 210.8 134 211.2Q134.5 211.6 135.3 211.6ZM143 207.8V213H141.6V204.3H143L143 206.4H142.8Q143.2 205.2 143.9 204.7Q144.7 204.2 145.7 204.2Q146.6 204.2 147.2 204.5Q147.9 204.9 148.3 205.6Q148.6 206.3 148.6 207.5V213H147.2V207.6Q147.2 206.6 146.7 206Q146.2 205.4 145.2 205.4Q144.6 205.4 144.1 205.7Q143.6 206 143.3 206.5Q143 207 143 207.8ZM152.2 213.1Q151.7 213.1 151.4 212.8Q151.1 212.5 151.1 212Q151.1 211.6 151.4 211.3Q151.7 211 152.2 211Q152.6 211 152.9 211.3Q153.2 211.6 153.2 212Q153.2 212.5 152.9 212.8Q152.6 213.1 152.2 213.1ZM152.2 206.8Q151.7 206.8 151.4 206.5Q151.1 206.2 151.1 205.7Q151.1 205.3 151.4 205Q151.7 204.7 152.2 204.7Q152.6 204.7 152.9 205Q153.2 205.3 153.2 205.7Q153.2 206.2 152.9 206.5Q152.6 206.8 152.2 206.8ZM160.2 216.3V204.3H161.6V205.7H161.7Q161.9 205.4 162.1 205.1Q162.4 204.7 162.9 204.4Q163.4 204.2 164.2 204.2Q165.3 204.2 166.2 204.7Q167 205.2 167.5 206.3Q168 207.3 168 208.7Q168 210 167.5 211.1Q167 212.1 166.2 212.6Q165.4 213.2 164.3 213.2Q163.4 213.2 162.9 212.9Q162.4 212.6 162.1 212.3Q161.9 211.9 161.7 211.6H161.6V216.3ZM164 211.9Q164.9 211.9 165.4 211.5Q166 211 166.2 210.3Q166.5 209.6 166.5 208.6Q166.5 207.7 166.2 207Q166 206.3 165.4 205.8Q164.9 205.4 164 205.4Q163.2 205.4 162.7 205.8Q162.1 206.2 161.9 206.9Q161.6 207.7 161.6 208.6Q161.6 209.6 161.9 210.4Q162.2 211.1 162.7 211.5Q163.3 211.9 164 211.9ZM170 213V204.3H171.4V205.6H171.5Q171.7 204.9 172.3 204.5Q172.9 204.1 173.7 204.1Q173.9 204.1 174.1 204.1Q174.3 204.2 174.4 204.2V205.6Q174.4 205.6 174.1 205.5Q173.9 205.5 173.6 205.5Q173 205.5 172.5 205.8Q172 206 171.7 206.5Q171.4 206.9 171.4 207.5V213ZM179.7 213.2Q178.4 213.2 177.5 212.6Q176.6 212.1 176.1 211.1Q175.6 210 175.6 208.7Q175.6 207.4 176.1 206.3Q176.6 205.3 177.5 204.7Q178.3 204.2 179.5 204.2Q180.2 204.2 180.9 204.4Q181.6 204.6 182.1 205.1Q182.7 205.6 183 206.5Q183.3 207.3 183.3 208.5V209.1H176.6V207.9H182.6L181.9 208.4Q181.9 207.5 181.7 206.8Q181.4 206.2 180.9 205.8Q180.3 205.4 179.5 205.4Q178.7 205.4 178.2 205.8Q177.6 206.2 177.3 206.8Q177 207.4 177 208.1V208.9Q177 209.9 177.4 210.6Q177.7 211.2 178.3 211.6Q178.9 211.9 179.7 211.9Q180.2 211.9 180.6 211.8Q181.1 211.6 181.4 211.3Q181.7 211 181.8 210.6L183.2 211Q183 211.6 182.5 212.1Q182 212.6 181.3 212.9Q180.6 213.2 179.7 213.2ZM188.3 213.2Q187.4 213.2 186.7 212.9Q186 212.7 185.6 212.1Q185.1 211.6 185 210.9L186.3 210.6Q186.5 211.3 187 211.6Q187.5 212 188.3 212Q189.2 212 189.8 211.6Q190.3 211.2 190.3 210.6Q190.3 210.2 190 209.9Q189.7 209.6 189 209.4L187.6 209.1Q186.4 208.8 185.8 208.2Q185.2 207.6 185.2 206.7Q185.2 206 185.6 205.4Q186.1 204.8 186.8 204.5Q187.5 204.2 188.5 204.2Q189.4 204.2 190 204.4Q190.6 204.7 191 205.2Q191.4 205.6 191.6 206.3L190.3 206.6Q190.1 206.1 189.7 205.7Q189.3 205.4 188.5 205.4Q187.7 205.4 187.2 205.7Q186.6 206.1 186.6 206.6Q186.6 207.1 187 207.4Q187.4 207.7 188.1 207.9L189.4 208.2Q190.6 208.5 191.2 209.1Q191.8 209.6 191.8 210.5Q191.8 211.3 191.3 211.9Q190.9 212.5 190.1 212.8Q189.3 213.2 188.3 213.2ZM197.5 213.2Q196.2 213.2 195.3 212.6Q194.4 212.1 193.9 211.1Q193.4 210 193.4 208.7Q193.4 207.4 193.9 206.3Q194.3 205.3 195.2 204.7Q196.1 204.2 197.3 204.2Q198 204.2 198.7 204.4Q199.4 204.6 199.9 205.1Q200.5 205.6 200.8 206.5Q201.1 207.3 201.1 208.5V209.1H194.3V207.9H200.4L199.7 208.4Q199.7 207.5 199.4 206.8Q199.2 206.2 198.6 205.8Q198.1 205.4 197.3 205.4Q196.5 205.4 196 205.8Q195.4 206.2 195.1 206.8Q194.8 207.4 194.8 208.1V208.9Q194.8 209.9 195.1 210.6Q195.5 211.2 196.1 211.6Q196.7 211.9 197.5 211.9Q198 211.9 198.4 211.8Q198.8 211.6 199.1 211.3Q199.4 211 199.6 210.6L201 211Q200.8 211.6 200.3 212.1Q199.8 212.6 199.1 212.9Q198.4 213.2 197.5 213.2ZM204.5 207.8V213H203.1V204.3H204.5L204.5 206.4H204.3Q204.7 205.2 205.4 204.7Q206.2 204.2 207.2 204.2Q208 204.2 208.7 204.5Q209.4 204.9 209.7 205.6Q210.1 206.3 210.1 207.5V213H208.7V207.6Q208.7 206.6 208.2 206Q207.6 205.4 206.7 205.4Q206.1 205.4 205.6 205.7Q205.1 206 204.8 206.5Q204.5 207 204.5 207.8ZM216 204.3V205.5H211.5V204.3ZM212.8 202.2H214.2V210.7Q214.2 211.3 214.5 211.6Q214.7 211.9 215.2 211.9Q215.4 211.9 215.6 211.8Q215.8 211.8 216 211.8L216.3 213Q216 213 215.8 213.1Q215.5 213.1 215.2 213.1Q214.1 213.1 213.4 212.5Q212.8 211.9 212.8 210.8ZM220.3 213.2Q219.4 213.2 218.8 212.9Q218.1 212.6 217.7 212Q217.3 211.4 217.3 210.5Q217.3 209.8 217.6 209.3Q217.9 208.8 218.4 208.6Q218.9 208.3 219.5 208.2Q220.1 208 220.7 207.9Q221.5 207.8 222 207.8Q222.4 207.7 222.7 207.6Q222.9 207.5 222.9 207.1V207.1Q222.9 206.6 222.7 206.2Q222.5 205.8 222.1 205.6Q221.7 205.4 221.1 205.4Q220.5 205.4 220 205.6Q219.6 205.8 219.3 206.1Q219 206.4 218.9 206.7L217.5 206.2Q217.9 205.4 218.4 205Q219 204.5 219.7 204.3Q220.4 204.2 221.1 204.2Q221.5 204.2 222.1 204.3Q222.6 204.4 223.1 204.7Q223.6 205 224 205.6Q224.3 206.2 224.3 207.2V213H222.9V211.8H222.9Q222.7 212.1 222.4 212.4Q222 212.8 221.5 213Q221 213.2 220.3 213.2ZM220.5 212Q221.3 212 221.8 211.7Q222.4 211.4 222.6 210.9Q222.9 210.4 222.9 209.8V208.6Q222.8 208.7 222.5 208.8Q222.3 208.9 221.9 209Q221.5 209 221.2 209.1Q220.8 209.1 220.6 209.1Q220.1 209.2 219.7 209.3Q219.2 209.5 219 209.8Q218.7 210.1 218.7 210.6Q218.7 211 218.9 211.3Q219.2 211.6 219.6 211.8Q220 212 220.5 212ZM230.2 204.3V205.5H225.7V204.3ZM227 202.2H228.4V210.7Q228.4 211.3 228.7 211.6Q228.9 211.9 229.5 211.9Q229.6 211.9 229.8 211.8Q230 211.8 230.2 211.8L230.5 213Q230.3 213 230 213.1Q229.7 213.1 229.4 213.1Q228.3 213.1 227.7 212.5Q227 211.9 227 210.8ZM232 213V204.3H233.4V213ZM232.7 202.8Q232.3 202.8 232.1 202.6Q231.8 202.3 231.8 201.9Q231.8 201.5 232.1 201.2Q232.3 201 232.7 201Q233.1 201 233.4 201.2Q233.7 201.5 233.7 201.9Q233.7 202.3 233.4 202.6Q233.1 202.8 232.7 202.8ZM239.5 213.2Q238.3 213.2 237.4 212.6Q236.5 212.1 236 211Q235.5 210 235.5 208.7Q235.5 207.3 236 206.3Q236.5 205.3 237.4 204.7Q238.3 204.2 239.5 204.2Q240.7 204.2 241.6 204.7Q242.5 205.3 243 206.3Q243.5 207.3 243.5 208.7Q243.5 210 243 211Q242.5 212.1 241.6 212.6Q240.7 213.2 239.5 213.2ZM239.5 211.9Q240.3 211.9 240.9 211.5Q241.5 211 241.8 210.3Q242 209.5 242 208.7Q242 207.8 241.8 207.1Q241.5 206.3 240.9 205.9Q240.3 205.4 239.5 205.4Q238.6 205.4 238 205.9Q237.5 206.3 237.2 207.1Q236.9 207.8 236.9 208.7Q236.9 209.5 237.2 210.3Q237.5 211 238 211.5Q238.6 211.9 239.5 211.9ZM246.9 207.8V213H245.5V204.3H246.9L246.9 206.4H246.7Q247.1 205.2 247.8 204.7Q248.5 204.2 249.5 204.2Q250.4 204.2 251.1 204.5Q251.7 204.9 252.1 205.6Q252.5 206.3 252.5 207.5V213H251.1V207.6Q251.1 206.6 250.6 206Q250 205.4 249.1 205.4Q248.5 205.4 248 205.7Q247.5 206 247.2 206.5Q246.9 207 246.9 207.8ZM257.4 213.2Q256.6 213.2 255.9 212.9Q255.2 212.6 254.8 212Q254.4 211.4 254.4 210.5Q254.4 209.8 254.7 209.3Q255 208.8 255.5 208.6Q256 208.3 256.6 208.2Q257.2 208 257.8 207.9Q258.6 207.8 259.1 207.8Q259.6 207.7 259.8 207.6Q260.1 207.5 260.1 207.1V207.1Q260.1 206.6 259.9 206.2Q259.7 205.8 259.2 205.6Q258.8 205.4 258.2 205.4Q257.6 205.4 257.2 205.6Q256.7 205.8 256.4 206.1Q256.2 206.4 256 206.7L254.7 206.2Q255 205.4 255.6 205Q256.1 204.5 256.8 204.3Q257.5 204.2 258.2 204.2Q258.6 204.2 259.2 204.3Q259.8 204.4 260.3 204.7Q260.8 205 261.1 205.6Q261.5 206.2 261.5 207.2V213H260.1V211.8H260Q259.8 212.1 259.5 212.4Q259.2 212.8 258.7 213Q258.1 213.2 257.4 213.2ZM257.6 212Q258.4 212 259 211.7Q259.5 211.4 259.8 210.9Q260.1 210.4 260.1 209.8V208.6Q260 208.7 259.7 208.8Q259.4 208.9 259 209Q258.7 209 258.3 209.1Q258 209.1 257.8 209.1Q257.2 209.2 256.8 209.3Q256.4 209.5 256.1 209.8Q255.8 210.1 255.8 210.6Q255.8 211 256.1 211.3Q256.3 211.6 256.7 211.8Q257.1 212 257.6 212ZM265.3 201.4V213H263.9V201.4ZM275.9 213.2Q274.7 213.2 273.8 212.6Q272.9 212.1 272.4 211Q271.9 210 271.9 208.7Q271.9 207.3 272.4 206.3Q272.9 205.3 273.8 204.7Q274.7 204.2 275.9 204.2Q276.5 204.2 277.1 204.3Q277.6 204.5 278.1 204.8Q278.6 205.1 278.9 205.6Q279.2 206 279.4 206.6L278.1 207Q278 206.6 277.8 206.3Q277.6 206.1 277.3 205.8Q277 205.6 276.7 205.5Q276.3 205.4 275.9 205.4Q275 205.4 274.4 205.9Q273.9 206.3 273.6 207.1Q273.3 207.8 273.3 208.7Q273.3 209.5 273.6 210.3Q273.9 211 274.4 211.5Q275 211.9 275.9 211.9Q276.3 211.9 276.7 211.8Q277 211.7 277.3 211.5Q277.6 211.3 277.8 211Q278 210.7 278.1 210.3L279.4 210.7Q279.3 211.3 278.9 211.7Q278.6 212.2 278.1 212.5Q277.6 212.9 277.1 213Q276.5 213.2 275.9 213.2ZM285 213.2Q283.8 213.2 282.9 212.6Q282 212.1 281.5 211Q281 210 281 208.7Q281 207.3 281.5 206.3Q282 205.3 282.9 204.7Q283.8 204.2 285 204.2Q286.2 204.2 287.1 204.7Q288 205.3 288.5 206.3Q289 207.3 289 208.7Q289 210 288.5 211Q288 212.1 287.1 212.6Q286.2 213.2 285 213.2ZM285 211.9Q285.9 211.9 286.5 211.5Q287 211 287.3 210.3Q287.6 209.5 287.6 208.7Q287.6 207.8 287.3 207.1Q287 206.3 286.5 205.9Q285.9 205.4 285 205.4Q284.1 205.4 283.6 205.9Q283 206.3 282.7 207.1Q282.5 207.8 282.5 208.7Q282.5 209.5 282.7 210.3Q283 211 283.6 211.5Q284.1 211.9 285 211.9ZM291 213V204.3H292.4L292.4 206.2H292.3Q292.5 205.5 292.9 205Q293.3 204.6 293.8 204.3Q294.3 204.1 294.9 204.1Q295.8 204.1 296.4 204.7Q297 205.3 297.2 206.2H297Q297.1 205.6 297.6 205.1Q298 204.6 298.6 204.4Q299.1 204.1 299.8 204.1Q300.6 204.1 301.2 204.4Q301.9 204.8 302.2 205.4Q302.6 206.1 302.6 207.1V213H301.2V207.1Q301.2 206.2 300.7 205.8Q300.1 205.4 299.4 205.4Q298.8 205.4 298.4 205.6Q298 205.9 297.8 206.3Q297.5 206.7 297.5 207.3V213H296.1V207Q296.1 206.3 295.6 205.8Q295.1 205.4 294.4 205.4Q293.9 205.4 293.4 205.6Q293 205.9 292.7 206.3Q292.5 206.8 292.5 207.5V213ZM305.1 216.3V204.3H306.4V205.7H306.6Q306.7 205.4 307 205.1Q307.3 204.7 307.8 204.4Q308.3 204.2 309.1 204.2Q310.2 204.2 311 204.7Q311.9 205.2 312.3 206.3Q312.8 207.3 312.8 208.7Q312.8 210 312.3 211.1Q311.9 212.1 311 212.6Q310.2 213.2 309.1 213.2Q308.3 213.2 307.8 212.9Q307.3 212.6 307 212.3Q306.7 211.9 306.6 211.6H306.5V216.3ZM308.9 211.9Q309.7 211.9 310.3 211.5Q310.8 211 311.1 210.3Q311.4 209.6 311.4 208.6Q311.4 207.7 311.1 207Q310.8 206.3 310.3 205.8Q309.7 205.4 308.9 205.4Q308.1 205.4 307.6 205.8Q307 206.2 306.7 206.9Q306.5 207.7 306.5 208.6Q306.5 209.6 306.7 210.4Q307 211.1 307.6 211.5Q308.1 211.9 308.9 211.9ZM318.4 213.2Q317.2 213.2 316.3 212.6Q315.4 212.1 314.9 211Q314.4 210 314.4 208.7Q314.4 207.3 314.9 206.3Q315.4 205.3 316.3 204.7Q317.2 204.2 318.4 204.2Q319.6 204.2 320.5 204.7Q321.4 205.3 321.9 206.3Q322.4 207.3 322.4 208.7Q322.4 210 321.9 211Q321.4 212.1 320.5 212.6Q319.6 213.2 318.4 213.2ZM318.4 211.9Q319.3 211.9 319.9 211.5Q320.4 211 320.7 210.3Q321 209.5 321 208.7Q321 207.8 320.7 207.1Q320.4 206.3 319.9 205.9Q319.3 205.4 318.4 205.4Q317.5 205.4 317 205.9Q316.4 206.3 316.1 207.1Q315.9 207.8 315.9 208.7Q315.9 209.5 316.1 210.3Q316.4 211 317 211.5Q317.5 211.9 318.4 211.9ZM325.9 207.8V213H324.5V204.3H325.8L325.8 206.4H325.6Q326 205.2 326.8 204.7Q327.5 204.2 328.5 204.2Q329.4 204.2 330 204.5Q330.7 204.9 331.1 205.6Q331.4 206.3 331.4 207.5V213H330V207.6Q330 206.6 329.5 206Q329 205.4 328.1 205.4Q327.4 205.4 326.9 205.7Q326.4 206 326.1 206.5Q325.9 207 325.9 207.8ZM337.6 213.2Q336.3 213.2 335.4 212.6Q334.5 212.1 334 211.1Q333.5 210 333.5 208.7Q333.5 207.4 334 206.3Q334.5 205.3 335.3 204.7Q336.2 204.2 337.4 204.2Q338.1 204.2 338.8 204.4Q339.5 204.6 340 205.1Q340.6 205.6 340.9 206.5Q341.2 207.3 341.2 208.5V209.1H334.4V207.9H340.5L339.8 208.4Q339.8 207.5 339.5 206.8Q339.3 206.2 338.7 205.8Q338.2 205.4 337.4 205.4Q336.6 205.4 336.1 205.8Q335.5 206.2 335.2 206.8Q334.9 207.4 334.9 208.1V208.9Q334.9 209.9 335.2 210.6Q335.6 211.2 336.2 211.6Q336.8 211.9 337.6 211.9Q338.1 211.9 338.5 211.8Q338.9 211.6 339.2 211.3Q339.6 211 339.7 210.6L341.1 211Q340.9 211.6 340.4 212.1Q339.9 212.6 339.2 212.9Q338.5 213.2 337.6 213.2ZM344.6 207.8V213H343.2V204.3H344.6L344.6 206.4H344.4Q344.8 205.2 345.5 204.7Q346.3 204.2 347.3 204.2Q348.1 204.2 348.8 204.5Q349.5 204.9 349.8 205.6Q350.2 206.3 350.2 207.5V213H348.8V207.6Q348.8 206.6 348.3 206Q347.8 205.4 346.8 205.4Q346.2 205.4 345.7 205.7Q345.2 206 344.9 206.5Q344.6 207 344.6 207.8ZM356.1 204.3V205.5H351.6V204.3ZM352.9 202.2H354.3V210.7Q354.3 211.3 354.6 211.6Q354.8 211.9 355.4 211.9Q355.5 211.9 355.7 211.8Q355.9 211.8 356.1 211.8L356.4 213Q356.1 213 355.9 213.1Q355.6 213.1 355.3 213.1Q354.2 213.1 353.6 212.5Q352.9 211.9 352.9 210.8ZM360.9 213.2Q360 213.2 359.3 212.9Q358.6 212.7 358.1 212.1Q357.7 211.6 357.5 210.9L358.9 210.6Q359.1 211.3 359.6 211.6Q360.1 212 360.9 212Q361.8 212 362.3 211.6Q362.9 211.2 362.9 210.6Q362.9 210.2 362.6 209.9Q362.2 209.6 361.6 209.4L360.1 209.1Q359 208.8 358.4 208.2Q357.8 207.6 357.8 206.7Q357.8 206 358.2 205.4Q358.6 204.8 359.4 204.5Q360.1 204.2 361 204.2Q361.9 204.2 362.6 204.4Q363.2 204.7 363.6 205.2Q364 205.6 364.2 206.3L362.9 206.6Q362.7 206.1 362.3 205.7Q361.9 205.4 361 205.4Q360.3 205.4 359.7 205.7Q359.2 206.1 359.2 206.6Q359.2 207.1 359.6 207.4Q359.9 207.7 360.7 207.9L362 208.2Q363.2 208.5 363.8 209.1Q364.3 209.6 364.3 210.5Q364.3 211.3 363.9 211.9Q363.5 212.5 362.7 212.8Q361.9 213.2 360.9 213.2ZM374.4 216.5Q373.4 216.5 372.7 216.2Q372 216 371.6 215.6Q371.1 215.1 370.8 214.7L372 213.9Q372.1 214.2 372.4 214.5Q372.7 214.8 373.2 215Q373.6 215.2 374.4 215.2Q375.5 215.2 376.1 214.7Q376.8 214.2 376.8 213.1V211.4H376.7Q376.5 211.6 376.3 212Q376 212.3 375.5 212.6Q375 212.9 374.1 212.9Q373.1 212.9 372.2 212.4Q371.4 211.9 370.9 210.9Q370.4 210 370.4 208.6Q370.4 207.2 370.9 206.2Q371.4 205.2 372.2 204.7Q373.1 204.2 374.2 204.2Q375 204.2 375.5 204.4Q376 204.7 376.3 205.1Q376.6 205.4 376.7 205.7H376.8V204.3H378.2V213.2Q378.2 214.4 377.7 215.1Q377.2 215.8 376.3 216.1Q375.5 216.5 374.4 216.5ZM374.4 211.6Q375.2 211.6 375.7 211.2Q376.3 210.9 376.5 210.2Q376.8 209.5 376.8 208.6Q376.8 207.6 376.5 206.9Q376.3 206.2 375.7 205.8Q375.2 205.4 374.4 205.4Q373.5 205.4 373 205.8Q372.4 206.3 372.2 207Q371.9 207.7 371.9 208.6Q371.9 209.5 372.2 210.1Q372.4 210.8 373 211.2Q373.5 211.6 374.4 211.6ZM384.4 213.2Q383.1 213.2 382.2 212.6Q381.2 212.1 380.8 211.1Q380.3 210 380.3 208.7Q380.3 207.4 380.7 206.3Q381.2 205.3 382.1 204.7Q383 204.2 384.2 204.2Q384.9 204.2 385.6 204.4Q386.2 204.6 386.8 205.1Q387.3 205.6 387.7 206.5Q388 207.3 388 208.5V209.1H381.2V207.9H387.2L386.6 208.4Q386.6 207.5 386.3 206.8Q386 206.2 385.5 205.8Q385 205.4 384.2 205.4Q383.4 205.4 382.8 205.8Q382.3 206.2 382 206.8Q381.7 207.4 381.7 208.1V208.9Q381.7 209.9 382 210.6Q382.4 211.2 383 211.6Q383.6 211.9 384.4 211.9Q384.9 211.9 385.3 211.8Q385.7 211.6 386 211.3Q386.3 211 386.5 210.6L387.9 211Q387.6 211.6 387.2 212.1Q386.7 212.6 386 212.9Q385.2 213.2 384.4 213.2ZM393.4 204.3V205.5H388.9V204.3ZM390.2 202.2H391.6V210.7Q391.6 211.3 391.9 211.6Q392.1 211.9 392.7 211.9Q392.8 211.9 393 211.8Q393.2 211.8 393.4 211.8L393.7 213Q393.5 213 393.2 213.1Q392.9 213.1 392.6 213.1Q391.5 213.1 390.9 212.5Q390.2 211.9 390.2 210.8ZM399.7 216.3V204.3H401.1V205.7H401.3Q401.4 205.4 401.7 205.1Q401.9 204.7 402.4 204.4Q402.9 204.2 403.8 204.2Q404.9 204.2 405.7 204.7Q406.5 205.2 407 206.3Q407.5 207.3 407.5 208.7Q407.5 210 407 211.1Q406.6 212.1 405.7 212.6Q404.9 213.2 403.8 213.2Q403 213.2 402.5 212.9Q402 212.6 401.7 212.3Q401.4 211.9 401.3 211.6H401.1V216.3ZM403.6 211.9Q404.4 211.9 405 211.5Q405.5 211 405.8 210.3Q406.1 209.6 406.1 208.6Q406.1 207.7 405.8 207Q405.5 206.3 405 205.8Q404.4 205.4 403.6 205.4Q402.8 205.4 402.2 205.8Q401.7 206.2 401.4 206.9Q401.1 207.7 401.1 208.6Q401.1 209.6 401.4 210.4Q401.7 211.1 402.2 211.5Q402.8 211.9 403.6 211.9ZM409.5 213V204.3H410.9V205.6H411Q411.2 204.9 411.9 204.5Q412.5 204.1 413.3 204.1Q413.4 204.1 413.6 204.1Q413.8 204.2 414 204.2V205.6Q413.9 205.6 413.7 205.5Q413.4 205.5 413.1 205.5Q412.5 205.5 412 205.8Q411.5 206 411.2 206.5Q410.9 206.9 410.9 207.5V213ZM419.1 213.2Q417.9 213.2 417 212.6Q416.1 212.1 415.6 211Q415.1 210 415.1 208.7Q415.1 207.3 415.6 206.3Q416.1 205.3 417 204.7Q417.9 204.2 419.1 204.2Q420.3 204.2 421.2 204.7Q422.1 205.3 422.6 206.3Q423.1 207.3 423.1 208.7Q423.1 210 422.6 211Q422.1 212.1 421.2 212.6Q420.3 213.2 419.1 213.2ZM419.1 211.9Q420 211.9 420.6 211.5Q421.1 211 421.4 210.3Q421.7 209.5 421.7 208.7Q421.7 207.8 421.4 207.1Q421.1 206.3 420.6 205.9Q420 205.4 419.1 205.4Q418.2 205.4 417.7 205.9Q417.1 206.3 416.8 207.1Q416.6 207.8 416.6 208.7Q416.6 209.5 416.8 210.3Q417.1 211 417.7 211.5Q418.2 211.9 419.1 211.9ZM425.2 216.3V204.3H426.5V205.7H426.7Q426.8 205.4 427.1 205.1Q427.4 204.7 427.9 204.4Q428.4 204.2 429.2 204.2Q430.3 204.2 431.1 204.7Q432 205.2 432.4 206.3Q432.9 207.3 432.9 208.7Q432.9 210 432.4 211.1Q432 212.1 431.1 212.6Q430.3 213.2 429.2 213.2Q428.4 213.2 427.9 212.9Q427.4 212.6 427.1 212.3Q426.8 211.9 426.7 211.6H426.6V216.3ZM429 211.9Q429.8 211.9 430.4 211.5Q430.9 211 431.2 210.3Q431.5 209.6 431.5 208.6Q431.5 207.7 431.2 207Q430.9 206.3 430.4 205.8Q429.8 205.4 429 205.4Q428.2 205.4 427.6 205.8Q427.1 206.2 426.8 206.9Q426.5 207.7 426.5 208.6Q426.5 209.6 426.8 210.4Q427.1 211.1 427.7 211.5Q428.2 211.9 429 211.9ZM437.9 213.2Q437 213.2 436.3 212.9Q435.6 212.7 435.2 212.1Q434.7 211.6 434.6 210.9L435.9 210.6Q436.1 211.3 436.6 211.6Q437.1 212 437.9 212Q438.8 212 439.4 211.6Q439.9 211.2 439.9 210.6Q439.9 210.2 439.6 209.9Q439.3 209.6 438.6 209.4L437.2 209.1Q436 208.8 435.4 208.2Q434.8 207.6 434.8 206.7Q434.8 206 435.2 205.4Q435.7 204.8 436.4 204.5Q437.1 204.2 438.1 204.2Q439 204.2 439.6 204.4Q440.2 204.7 440.6 205.2Q441 205.6 441.2 206.3L439.9 206.6Q439.8 206.1 439.3 205.7Q438.9 205.4 438.1 205.4Q437.3 205.4 436.8 205.7Q436.2 206.1 436.2 206.6Q436.2 207.1 436.6 207.4Q437 207.7 437.7 207.9L439 208.2Q440.2 208.5 440.8 209.1Q441.4 209.6 441.4 210.5Q441.4 211.3 440.9 211.9Q440.5 212.5 439.7 212.8Q438.9 213.2 437.9 213.2ZM444.5 213.1Q444 213.1 443.7 212.8Q443.4 212.5 443.4 212Q443.4 211.6 443.7 211.3Q444 211 444.5 211Q444.9 211 445.2 211.3Q445.5 211.6 445.5 212Q445.5 212.5 445.2 212.8Q444.9 213.1 444.5 213.1ZM457.4 213.2Q455.9 213.2 454.7 212.4Q453.6 211.7 452.9 210.4Q452.2 209 452.2 207.2Q452.2 205.3 452.9 204Q453.6 202.7 454.7 201.9Q455.9 201.2 457.4 201.2Q458.3 201.2 459.1 201.5Q459.8 201.7 460.5 202.2Q461.1 202.7 461.5 203.4Q461.9 204.1 462.1 205H460.6Q460.5 204.4 460.2 204Q459.9 203.5 459.4 203.2Q459 202.9 458.5 202.7Q458 202.6 457.4 202.6Q456.3 202.6 455.5 203.1Q454.7 203.6 454.2 204.7Q453.7 205.7 453.7 207.2Q453.7 208.7 454.2 209.7Q454.7 210.7 455.5 211.3Q456.4 211.8 457.4 211.8Q458 211.8 458.5 211.6Q459 211.5 459.4 211.2Q459.9 210.8 460.2 210.4Q460.5 209.9 460.6 209.3H462.1Q461.9 210.2 461.5 210.9Q461.1 211.6 460.5 212.1Q459.9 212.6 459.1 212.9Q458.3 213.2 457.4 213.2ZM467.8 213.2Q466.6 213.2 465.7 212.6Q464.8 212.1 464.3 211Q463.8 210 463.8 208.7Q463.8 207.3 464.3 206.3Q464.8 205.3 465.7 204.7Q466.6 204.2 467.8 204.2Q468.9 204.2 469.8 204.7Q470.7 205.3 471.2 206.3Q471.7 207.3 471.7 208.7Q471.7 210 471.2 211Q470.7 212.1 469.8 212.6Q468.9 213.2 467.8 213.2ZM467.8 211.9Q468.6 211.9 469.2 211.5Q469.8 211 470 210.3Q470.3 209.5 470.3 208.7Q470.3 207.8 470 207.1Q469.8 206.3 469.2 205.9Q468.6 205.4 467.8 205.4Q466.9 205.4 466.3 205.9Q465.8 206.3 465.5 207.1Q465.2 207.8 465.2 208.7Q465.2 209.5 465.5 210.3Q465.8 211 466.3 211.5Q466.9 211.9 467.8 211.9ZM475.2 207.8V213H473.8V204.3H475.1L475.1 206.4H475Q475.4 205.2 476.1 204.7Q476.8 204.2 477.8 204.2Q478.7 204.2 479.4 204.5Q480 204.9 480.4 205.6Q480.8 206.3 480.8 207.5V213H479.4V207.6Q479.4 206.6 478.8 206Q478.3 205.4 477.4 205.4Q476.8 205.4 476.3 205.7Q475.8 206 475.5 206.5Q475.2 207 475.2 207.8ZM486.7 204.3V205.5H482.2V204.3ZM483.5 202.2H484.9V210.7Q484.9 211.3 485.1 211.6Q485.4 211.9 485.9 211.9Q486 211.9 486.3 211.8Q486.5 211.8 486.6 211.8L486.9 213Q486.7 213 486.4 213.1Q486.1 213.1 485.9 213.1Q484.7 213.1 484.1 212.5Q483.5 211.9 483.5 210.8ZM490.9 213.2Q490.1 213.2 489.4 212.9Q488.7 212.6 488.3 212Q487.9 211.4 487.9 210.5Q487.9 209.8 488.2 209.3Q488.5 208.8 489 208.6Q489.5 208.3 490.1 208.2Q490.7 208 491.3 207.9Q492.1 207.8 492.6 207.8Q493.1 207.7 493.3 207.6Q493.6 207.5 493.6 207.1V207.1Q493.6 206.6 493.4 206.2Q493.2 205.8 492.8 205.6Q492.4 205.4 491.8 205.4Q491.1 205.4 490.7 205.6Q490.2 205.8 490 206.1Q489.7 206.4 489.5 206.7L488.2 206.2Q488.5 205.4 489.1 205Q489.7 204.5 490.4 204.3Q491 204.2 491.7 204.2Q492.2 204.2 492.7 204.3Q493.3 204.4 493.8 204.7Q494.3 205 494.7 205.6Q495 206.2 495 207.2V213H493.6V211.8H493.5Q493.4 212.1 493 212.4Q492.7 212.8 492.2 213Q491.7 213.2 490.9 213.2ZM491.2 212Q491.9 212 492.5 211.7Q493 211.4 493.3 210.9Q493.6 210.4 493.6 209.8V208.6Q493.5 208.7 493.2 208.8Q492.9 208.9 492.6 209Q492.2 209 491.8 209.1Q491.5 209.1 491.3 209.1Q490.8 209.2 490.3 209.3Q489.9 209.5 489.6 209.8Q489.4 210.1 489.4 210.6Q489.4 211 489.6 211.3Q489.8 211.6 490.2 211.8Q490.6 212 491.2 212ZM497.5 213V204.3H498.9V213ZM498.2 202.8Q497.8 202.8 497.5 202.6Q497.2 202.3 497.2 201.9Q497.2 201.5 497.5 201.2Q497.8 201 498.2 201Q498.6 201 498.9 201.2Q499.2 201.5 499.2 201.9Q499.2 202.3 498.9 202.6Q498.6 202.8 498.2 202.8ZM502.7 207.8V213H501.3V204.3H502.7L502.7 206.4H502.5Q502.9 205.2 503.6 204.7Q504.4 204.2 505.4 204.2Q506.2 204.2 506.9 204.5Q507.6 204.9 507.9 205.6Q508.3 206.3 508.3 207.5V213H506.9V207.6Q506.9 206.6 506.4 206Q505.9 205.4 504.9 205.4Q504.3 205.4 503.8 205.7Q503.3 206 503 206.5Q502.7 207 502.7 207.8ZM514.5 213.2Q513.2 213.2 512.3 212.6Q511.4 212.1 510.9 211.1Q510.4 210 510.4 208.7Q510.4 207.4 510.9 206.3Q511.3 205.3 512.2 204.7Q513.1 204.2 514.3 204.2Q515 204.2 515.7 204.4Q516.3 204.6 516.9 205.1Q517.4 205.6 517.8 206.5Q518.1 207.3 518.1 208.5V209.1H511.3V207.9H517.3L516.7 208.4Q516.7 207.5 516.4 206.8Q516.1 206.2 515.6 205.8Q515.1 205.4 514.3 205.4Q513.5 205.4 512.9 205.8Q512.4 206.2 512.1 206.8Q511.8 207.4 511.8 208.1V208.9Q511.8 209.9 512.1 210.6Q512.5 211.2 513.1 211.6Q513.7 211.9 514.5 211.9Q515 211.9 515.4 211.8Q515.8 211.6 516.1 211.3Q516.4 211 516.6 210.6L518 211Q517.8 211.6 517.3 212.1Q516.8 212.6 516.1 212.9Q515.4 213.2 514.5 213.2ZM520.1 213V204.3H521.5V205.6H521.6Q521.8 204.9 522.4 204.5Q523.1 204.1 523.8 204.1Q524 204.1 524.2 204.1Q524.4 204.2 524.5 204.2V205.6Q524.5 205.6 524.2 205.5Q524 205.5 523.7 205.5Q523.1 205.5 522.6 205.8Q522.1 206 521.8 206.5Q521.5 206.9 521.5 207.5V213ZM529.1 213.2Q528.2 213.2 527.5 212.9Q526.8 212.7 526.4 212.1Q525.9 211.6 525.8 210.9L527.1 210.6Q527.3 211.3 527.8 211.6Q528.3 212 529.1 212Q530 212 530.6 211.6Q531.1 211.2 531.1 210.6Q531.1 210.2 530.8 209.9Q530.5 209.6 529.8 209.4L528.4 209.1Q527.2 208.8 526.6 208.2Q526 207.6 526 206.7Q526 206 526.4 205.4Q526.9 204.8 527.6 204.5Q528.3 204.2 529.2 204.2Q530.1 204.2 530.8 204.4Q531.4 204.7 531.8 205.2Q532.2 205.6 532.4 206.3L531.1 206.6Q530.9 206.1 530.5 205.7Q530.1 205.4 529.3 205.4Q528.5 205.4 528 205.7Q527.4 206.1 527.4 206.6Q527.4 207.1 527.8 207.4Q528.1 207.7 528.9 207.9L530.2 208.2Q531.4 208.5 532 209.1Q532.6 209.6 532.6 210.5Q532.6 211.3 532.1 211.9Q531.7 212.5 530.9 212.8Q530.1 213.2 529.1 213.2ZM542.6 213.2Q541.5 213.2 540.6 212.6Q539.7 212.1 539.2 211Q538.7 210 538.7 208.7Q538.7 207.3 539.2 206.3Q539.7 205.3 540.6 204.7Q541.5 204.2 542.6 204.2Q543.8 204.2 544.7 204.7Q545.6 205.3 546.1 206.3Q546.6 207.3 546.6 208.7Q546.6 210 546.1 211Q545.6 212.1 544.7 212.6Q543.8 213.2 542.6 213.2ZM542.6 211.9Q543.5 211.9 544.1 211.5Q544.7 211 544.9 210.3Q545.2 209.5 545.2 208.7Q545.2 207.8 544.9 207.1Q544.7 206.3 544.1 205.9Q543.5 205.4 542.6 205.4Q541.8 205.4 541.2 205.9Q540.6 206.3 540.4 207.1Q540.1 207.8 540.1 208.7Q540.1 209.5 540.4 210.3Q540.6 211 541.2 211.5Q541.8 211.9 542.6 211.9ZM550.6 213 548 204.3H549.5L550.5 208.1Q550.8 208.9 551 209.8Q551.3 210.8 551.5 212.1H551.3Q551.5 210.9 551.7 209.9Q552 208.9 552.2 208.1L553.3 204.3H554.8L555.8 208.1Q556 208.9 556.2 209.9Q556.5 210.9 556.7 212.1H556.5Q556.7 210.9 557 209.9Q557.2 208.9 557.4 208.1L558.5 204.3H560L557.3 213H555.9L554.8 209Q554.6 208.4 554.5 207.8Q554.3 207.2 554.2 206.5Q554 205.9 553.8 205.2H554.1Q554 205.9 553.8 206.5Q553.7 207.2 553.5 207.8Q553.3 208.5 553.2 209L552 213ZM563.2 207.8V213H561.8V204.3H563.1L563.1 206.4H562.9Q563.3 205.2 564.1 204.7Q564.8 204.2 565.8 204.2Q566.7 204.2 567.4 204.5Q568 204.9 568.4 205.6Q568.8 206.3 568.8 207.5V213H567.4V207.6Q567.4 206.6 566.8 206Q566.3 205.4 565.4 205.4Q564.8 205.4 564.3 205.7Q563.8 206 563.5 206.5Q563.2 207 563.2 207.8ZM578.7 213.2Q577.8 213.2 577.1 212.9Q576.4 212.7 575.9 212.1Q575.5 211.6 575.3 210.9L576.7 210.6Q576.9 211.3 577.4 211.6Q577.9 212 578.7 212Q579.6 212 580.1 211.6Q580.7 211.2 580.7 210.6Q580.7 210.2 580.4 209.9Q580 209.6 579.4 209.4L577.9 209.1Q576.8 208.8 576.2 208.2Q575.6 207.6 575.6 206.7Q575.6 206 576 205.4Q576.4 204.8 577.2 204.5Q577.9 204.2 578.8 204.2Q579.7 204.2 580.4 204.4Q581 204.7 581.4 205.2Q581.8 205.6 582 206.3L580.7 206.6Q580.5 206.1 580.1 205.7Q579.7 205.4 578.8 205.4Q578.1 205.4 577.5 205.7Q577 206.1 577 206.6Q577 207.1 577.4 207.4Q577.7 207.7 578.5 207.9L579.8 208.2Q581 208.5 581.6 209.1Q582.1 209.6 582.1 210.5Q582.1 211.3 581.7 211.9Q581.3 212.5 580.5 212.8Q579.7 213.2 578.7 213.2ZM587.6 204.3V205.5H583.1V204.3ZM584.4 202.2H585.8V210.7Q585.8 211.3 586.1 211.6Q586.3 211.9 586.8 211.9Q587 211.9 587.2 211.8Q587.4 211.8 587.6 211.8L587.9 213Q587.6 213 587.4 213.1Q587.1 213.1 586.8 213.1Q585.7 213.1 585 212.5Q584.4 211.9 584.4 210.8ZM591.9 213.2Q591 213.2 590.3 212.9Q589.7 212.6 589.3 212Q588.9 211.4 588.9 210.5Q588.9 209.8 589.2 209.3Q589.5 208.8 590 208.6Q590.5 208.3 591.1 208.2Q591.7 208 592.3 207.9Q593.1 207.8 593.5 207.8Q594 207.7 594.3 207.6Q594.5 207.5 594.5 207.1V207.1Q594.5 206.6 594.3 206.2Q594.1 205.8 593.7 205.6Q593.3 205.4 592.7 205.4Q592.1 205.4 591.6 205.6Q591.2 205.8 590.9 206.1Q590.6 206.4 590.5 206.7L589.1 206.2Q589.5 205.4 590 205Q590.6 204.5 591.3 204.3Q592 204.2 592.6 204.2Q593.1 204.2 593.6 204.3Q594.2 204.4 594.7 204.7Q595.2 205 595.6 205.6Q595.9 206.2 595.9 207.2V213H594.5V211.8H594.4Q594.3 212.1 594 212.4Q593.6 212.8 593.1 213Q592.6 213.2 591.9 213.2ZM592.1 212Q592.9 212 593.4 211.7Q594 211.4 594.2 210.9Q594.5 210.4 594.5 209.8V208.6Q594.4 208.7 594.1 208.8Q593.9 208.9 593.5 209Q593.1 209 592.8 209.1Q592.4 209.1 592.2 209.1Q591.7 209.2 591.3 209.3Q590.8 209.5 590.6 209.8Q590.3 210.1 590.3 210.6Q590.3 211 590.5 211.3Q590.8 211.6 591.2 211.8Q591.6 212 592.1 212ZM601.8 204.3V205.5H597.3V204.3ZM598.6 202.2H600V210.7Q600 211.3 600.3 211.6Q600.5 211.9 601.1 211.9Q601.2 211.9 601.4 211.8Q601.6 211.8 601.8 211.8L602.1 213Q601.9 213 601.6 213.1Q601.3 213.1 601 213.1Q599.9 213.1 599.3 212.5Q598.6 211.9 598.6 210.8ZM607.3 213.2Q606 213.2 605.1 212.6Q604.2 212.1 603.7 211.1Q603.2 210 603.2 208.7Q603.2 207.4 603.7 206.3Q604.2 205.3 605.1 204.7Q605.9 204.2 607.1 204.2Q607.8 204.2 608.5 204.4Q609.2 204.6 609.7 205.1Q610.3 205.6 610.6 206.5Q610.9 207.3 610.9 208.5V209.1H604.2V207.9H610.2L609.5 208.4Q609.5 207.5 609.3 206.8Q609 206.2 608.5 205.8Q607.9 205.4 607.1 205.4Q606.3 205.4 605.8 205.8Q605.2 206.2 604.9 206.8Q604.6 207.4 604.6 208.1V208.9Q604.6 209.9 605 210.6Q605.3 211.2 605.9 211.6Q606.5 211.9 607.3 211.9Q607.8 211.9 608.2 211.8Q608.7 211.6 609 211.3Q609.3 211 609.4 210.6L610.8 211Q610.6 211.6 610.1 212.1Q609.6 212.6 608.9 212.9Q608.2 213.2 607.3 213.2ZM619.9 213.2Q619.1 213.2 618.4 212.9Q617.7 212.6 617.3 212Q616.9 211.4 616.9 210.5Q616.9 209.8 617.2 209.3Q617.5 208.8 618 208.6Q618.5 208.3 619.1 208.2Q619.7 208 620.3 207.9Q621.1 207.8 621.6 207.8Q622.1 207.7 622.3 207.6Q622.6 207.5 622.6 207.1V207.1Q622.6 206.6 622.4 206.2Q622.2 205.8 621.8 205.6Q621.3 205.4 620.7 205.4Q620.1 205.4 619.7 205.6Q619.2 205.8 618.9 206.1Q618.7 206.4 618.5 206.7L617.2 206.2Q617.5 205.4 618.1 205Q618.6 204.5 619.3 204.3Q620 204.2 620.7 204.2Q621.1 204.2 621.7 204.3Q622.2 204.4 622.8 204.7Q623.3 205 623.6 205.6Q624 206.2 624 207.2V213H622.6V211.8H622.5Q622.3 212.1 622 212.4Q621.7 212.8 621.2 213Q620.6 213.2 619.9 213.2ZM620.1 212Q620.9 212 621.5 211.7Q622 211.4 622.3 210.9Q622.6 210.4 622.6 209.8V208.6Q622.5 208.7 622.2 208.8Q621.9 208.9 621.5 209Q621.2 209 620.8 209.1Q620.5 209.1 620.3 209.1Q619.8 209.2 619.3 209.3Q618.9 209.5 618.6 209.8Q618.3 210.1 618.3 210.6Q618.3 211 618.6 211.3Q618.8 211.6 619.2 211.8Q619.6 212 620.1 212ZM627.8 207.8V213H626.4V204.3H627.8L627.8 206.4H627.6Q628 205.2 628.7 204.7Q629.5 204.2 630.5 204.2Q631.4 204.2 632 204.5Q632.7 204.9 633.1 205.6Q633.4 206.3 633.4 207.5V213H632V207.6Q632 206.6 631.5 206Q631 205.4 630 205.4Q629.4 205.4 628.9 205.7Q628.4 206 628.1 206.5Q627.8 207 627.8 207.8ZM639.2 213.2Q638.1 213.2 637.2 212.6Q636.4 212.1 635.9 211.1Q635.5 210 635.5 208.7Q635.5 207.3 635.9 206.3Q636.4 205.2 637.2 204.7Q638.1 204.2 639.2 204.2Q640 204.2 640.5 204.4Q641 204.7 641.3 205.1Q641.6 205.4 641.7 205.7H641.8V201.4H643.2V213H641.9V211.6H641.7Q641.6 211.9 641.3 212.3Q641 212.6 640.5 212.9Q640 213.2 639.2 213.2ZM639.4 211.9Q640.2 211.9 640.7 211.5Q641.3 211.1 641.5 210.4Q641.8 209.6 641.8 208.6Q641.8 207.7 641.6 206.9Q641.3 206.2 640.7 205.8Q640.2 205.4 639.4 205.4Q638.5 205.4 638 205.8Q637.4 206.3 637.2 207Q636.9 207.7 636.9 208.6Q636.9 209.6 637.2 210.3Q637.5 211 638 211.5Q638.6 211.9 639.4 211.9ZM653.2 213.2Q652.3 213.2 651.6 212.9Q650.9 212.7 650.4 212.1Q650 211.6 649.8 210.9L651.1 210.6Q651.3 211.3 651.8 211.6Q652.4 212 653.1 212Q654.1 212 654.6 211.6Q655.1 211.2 655.1 210.6Q655.1 210.2 654.8 209.9Q654.5 209.6 653.9 209.4L652.4 209.1Q651.2 208.8 650.6 208.2Q650.1 207.6 650.1 206.7Q650.1 206 650.5 205.4Q650.9 204.8 651.6 204.5Q652.4 204.2 653.3 204.2Q654.2 204.2 654.8 204.4Q655.5 204.7 655.8 205.2Q656.2 205.6 656.4 206.3L655.2 206.6Q655 206.1 654.6 205.7Q654.1 205.4 653.3 205.4Q652.5 205.4 652 205.7Q651.5 206.1 651.5 206.6Q651.5 207.1 651.8 207.4Q652.2 207.7 653 207.9L654.3 208.2Q655.5 208.5 656 209.1Q656.6 209.6 656.6 210.5Q656.6 211.3 656.2 211.9Q655.7 212.5 655 212.8Q654.2 213.2 653.2 213.2ZM658.6 213V204.3H660V213ZM659.3 202.8Q658.9 202.8 658.7 202.6Q658.4 202.3 658.4 201.9Q658.4 201.5 658.7 201.2Q658.9 201 659.3 201Q659.8 201 660 201.2Q660.3 201.5 660.3 201.9Q660.3 202.3 660 202.6Q659.8 202.8 659.3 202.8ZM665.8 213.2Q664.7 213.2 663.9 212.6Q663 212.1 662.6 211.1Q662.1 210 662.1 208.7Q662.1 207.3 662.6 206.3Q663 205.2 663.9 204.7Q664.7 204.2 665.8 204.2Q666.6 204.2 667.1 204.4Q667.6 204.7 667.9 205.1Q668.2 205.4 668.3 205.7H668.4V201.4H669.8V213H668.5V211.6H668.3Q668.2 211.9 667.9 212.3Q667.6 212.6 667.1 212.9Q666.6 213.2 665.8 213.2ZM666 211.9Q666.8 211.9 667.3 211.5Q667.9 211.1 668.2 210.4Q668.4 209.6 668.4 208.6Q668.4 207.7 668.2 206.9Q667.9 206.2 667.3 205.8Q666.8 205.4 666 205.4Q665.2 205.4 664.6 205.8Q664.1 206.3 663.8 207Q663.5 207.7 663.5 208.6Q663.5 209.6 663.8 210.3Q664.1 211 664.6 211.5Q665.2 211.9 666 211.9ZM676 213.2Q674.7 213.2 673.8 212.6Q672.9 212.1 672.4 211.1Q671.9 210 671.9 208.7Q671.9 207.4 672.4 206.3Q672.9 205.3 673.7 204.7Q674.6 204.2 675.8 204.2Q676.5 204.2 677.2 204.4Q677.9 204.6 678.4 205.1Q679 205.6 679.3 206.5Q679.6 207.3 679.6 208.5V209.1H672.8V207.9H678.9L678.2 208.4Q678.2 207.5 677.9 206.8Q677.7 206.2 677.1 205.8Q676.6 205.4 675.8 205.4Q675 205.4 674.5 205.8Q673.9 206.2 673.6 206.8Q673.3 207.4 673.3 208.1V208.9Q673.3 209.9 673.6 210.6Q674 211.2 674.6 211.6Q675.2 211.9 676 211.9Q676.5 211.9 676.9 211.8Q677.3 211.6 677.6 211.3Q678 211 678.1 210.6L679.5 211Q679.3 211.6 678.8 212.1Q678.3 212.6 677.6 212.9Q676.9 213.2 676 213.2ZM689.8 213.2Q688.5 213.2 687.6 212.6Q686.7 212.1 686.2 211.1Q685.7 210 685.7 208.7Q685.7 207.4 686.2 206.3Q686.7 205.3 687.6 204.7Q688.5 204.2 689.6 204.2Q690.3 204.2 691 204.4Q691.7 204.6 692.2 205.1Q692.8 205.6 693.1 206.5Q693.4 207.3 693.4 208.5V209.1H686.7V207.9H692.7L692 208.4Q692 207.5 691.8 206.8Q691.5 206.2 691 205.8Q690.4 205.4 689.6 205.4Q688.9 205.4 688.3 205.8Q687.7 206.2 687.4 206.8Q687.1 207.4 687.1 208.1V208.9Q687.1 209.9 687.5 210.6Q687.8 211.2 688.4 211.6Q689 211.9 689.8 211.9Q690.3 211.9 690.8 211.8Q691.2 211.6 691.5 211.3Q691.8 211 691.9 210.6L693.3 211Q693.1 211.6 692.6 212.1Q692.1 212.6 691.4 212.9Q690.7 213.2 689.8 213.2ZM699.5 204.3V205.5H694.4V204.3ZM696.1 213V203.1Q696.1 202.3 696.5 201.8Q696.8 201.3 697.4 201.1Q698 200.8 698.6 200.8Q699.1 200.8 699.4 200.9Q699.7 201 699.9 201L699.5 202.2Q699.4 202.2 699.2 202.2Q699 202.1 698.8 202.1Q698.1 202.1 697.8 202.4Q697.5 202.8 697.5 203.4V213ZM705.4 204.3V205.5H700.3V204.3ZM702 213V203.1Q702 202.3 702.4 201.8Q702.7 201.3 703.3 201.1Q703.9 200.8 704.5 200.8Q705 200.8 705.3 200.9Q705.7 201 705.8 201L705.4 202.2Q705.3 202.2 705.1 202.2Q705 202.1 704.7 202.1Q704 202.1 703.7 202.4Q703.4 202.8 703.4 203.4V213ZM711 213.2Q709.7 213.2 708.8 212.6Q707.9 212.1 707.4 211.1Q706.9 210 706.9 208.7Q706.9 207.4 707.4 206.3Q707.9 205.3 708.7 204.7Q709.6 204.2 710.8 204.2Q711.5 204.2 712.2 204.4Q712.9 204.6 713.4 205.1Q714 205.6 714.3 206.5Q714.6 207.3 714.6 208.5V209.1H707.8V207.9H713.9L713.2 208.4Q713.2 207.5 712.9 206.8Q712.7 206.2 712.1 205.8Q711.6 205.4 710.8 205.4Q710 205.4 709.5 205.8Q708.9 206.2 708.6 206.8Q708.3 207.4 708.3 208.1V208.9Q708.3 209.9 708.6 210.6Q709 211.2 709.6 211.6Q710.2 211.9 711 211.9Q711.5 211.9 711.9 211.8Q712.3 211.6 712.6 211.3Q713 211 713.1 210.6L714.5 211Q714.3 211.6 713.8 212.1Q713.3 212.6 712.6 212.9Q711.9 213.2 711 213.2ZM720.2 213.2Q719 213.2 718.1 212.6Q717.2 212.1 716.7 211Q716.2 210 716.2 208.7Q716.2 207.3 716.7 206.3Q717.2 205.3 718.1 204.7Q719 204.2 720.2 204.2Q720.8 204.2 721.4 204.3Q721.9 204.5 722.4 204.8Q722.9 205.1 723.2 205.6Q723.5 206 723.7 206.6L722.4 207Q722.3 206.6 722.1 206.3Q721.9 206.1 721.6 205.8Q721.3 205.6 721 205.5Q720.6 205.4 720.2 205.4Q719.3 205.4 718.8 205.9Q718.2 206.3 717.9 207.1Q717.6 207.8 717.6 208.7Q717.6 209.5 717.9 210.3Q718.2 211 718.8 211.5Q719.3 211.9 720.2 211.9Q720.6 211.9 721 211.8Q721.4 211.7 721.6 211.5Q721.9 211.3 722.1 211Q722.3 210.7 722.4 210.3L723.8 210.7Q723.6 211.3 723.2 211.7Q722.9 212.2 722.4 212.5Q722 212.9 721.4 213Q720.8 213.2 720.2 213.2ZM729.2 204.3V205.5H724.7V204.3ZM726 202.2H727.4V210.7Q727.4 211.3 727.7 211.6Q727.9 211.9 728.4 211.9Q728.6 211.9 728.8 211.8Q729 211.8 729.2 211.8L729.5 213Q729.2 213 729 213.1Q728.7 213.1 728.4 213.1Q727.3 213.1 726.6 212.5Q726 211.9 726 210.8ZM734 213.2Q733.1 213.2 732.4 212.9Q731.7 212.7 731.2 212.1Q730.8 211.6 730.6 210.9L732 210.6Q732.1 211.3 732.7 211.6Q733.2 212 734 212Q734.9 212 735.4 211.6Q736 211.2 736 210.6Q736 210.2 735.6 209.9Q735.3 209.6 734.7 209.4L733.2 209.1Q732 208.8 731.5 208.2Q730.9 207.6 730.9 206.7Q730.9 206 731.3 205.4Q731.7 204.8 732.5 204.5Q733.2 204.2 734.1 204.2Q735 204.2 735.6 204.4Q736.3 204.7 736.7 205.2Q737.1 205.6 737.3 206.3L736 206.6Q735.8 206.1 735.4 205.7Q735 205.4 734.1 205.4Q733.3 205.4 732.8 205.7Q732.3 206.1 732.3 206.6Q732.3 207.1 732.7 207.4Q733 207.7 733.8 207.9L735.1 208.2Q736.3 208.5 736.9 209.1Q737.4 209.6 737.4 210.5Q737.4 211.3 737 211.9Q736.6 212.5 735.8 212.8Q735 213.2 734 213.2ZM740.5 213.1Q740.1 213.1 739.8 212.8Q739.5 212.5 739.5 212Q739.5 211.6 739.8 211.3Q740.1 211 740.5 211Q741 211 741.3 211.3Q741.6 211.6 741.6 212Q741.6 212.5 741.3 212.8Q741 213.1 740.5 213.1Z"/>
</svg>
